<?xml version="1.0" encoding="UTF-8" standalone="no"?>
<svg
   height="50"
   width="50"
   viewBox="-35.20005 -41.33325 12.71112 15.499966"
   version="1.1"
   id="svg938"
   sodipodi:docname="favicon.svg"
   inkscape:version="1.2.1 (9c6d41e, 2022-07-14)"
   xmlns:inkscape="http://www.inkscape.org/namespaces/inkscape"
   xmlns:sodipodi="http://sodipodi.sourceforge.net/DTD/sodipodi-0.dtd"
   xmlns="http://www.w3.org/2000/svg"
   xmlns:svg="http://www.w3.org/2000/svg">
  <defs
     id="defs942" />
  <sodipodi:namedview
     id="namedview940"
     pagecolor="#ffffff"
     bordercolor="#111111"
     borderopacity="1"
     inkscape:showpageshadow="0"
     inkscape:pageopacity="0"
     inkscape:pagecheckerboard="1"
     inkscape:deskcolor="#d1d1d1"
     showgrid="false"
     inkscape:zoom="4.2039375"
     inkscape:cx="43.530619"
     inkscape:cy="45.790405"
     inkscape:window-width="1920"
     inkscape:window-height="1027"
     inkscape:window-x="0"
     inkscape:window-y="25"
     inkscape:window-maximized="1"
     inkscape:current-layer="svg938"
     showguides="false" />
  <path
     d="m -21.57339,-37.27234 c -0.174709,-0.657795 -0.689376,-1.175828 -1.343025,-1.351637 -1.184494,-0.319509 -5.93459,-0.319509 -5.93459,-0.319509 0,0 -4.750028,0 -5.934578,0.319509 -0.653645,0.175809 -1.168458,0.693842 -1.343023,1.351637 -0.317384,1.19227 -0.317384,3.679899 -0.317384,3.679899 0,0 0,2.48752 0.317384,3.679907 0.174565,0.65786 0.689378,1.175766 1.342931,1.351765 1.184575,0.319382 5.934613,0.319382 5.934613,0.319382 0,0 4.750085,0 5.934581,-0.319382 0.653648,-0.175942 1.168314,-0.693905 1.34303,-1.35169 0.317428,-1.192404 0.317428,-3.679905 0.317428,-3.679905 0,0 0,-2.487647 -0.317428,-3.679904"
     fill="#ff0000"
     id="path934"
     style="fill:#448aff;fill-opacity:1;stroke-width:0.0647302" />
  <path
     d="m -30.404535,-31.333864 3.97011,-2.258437 -3.97011,-2.258708 z"
     fill="#ffffff"
     id="path936"
     style="stroke-width:0.0647302" />
</svg>
