<svg xmlns="http://www.w3.org/2000/svg" xml:space="preserve" width="1000" height="893.9"><defs><linearGradient id="b" x1="0" x2="1" y1="0" y2="0" gradientTransform="scale(-365.804 365.804) rotate(26 -50 -69)" gradientUnits="userSpaceOnUse" spreadMethod="pad"><stop offset="0" style="stop-opacity:1;stop-color:#9cae54"/><stop offset="1" style="stop-opacity:1;stop-color:#6e9662"/></linearGradient><linearGradient id="d" x1="0" x2="1" y1="0" y2="0" gradientTransform="scale(-399.192 399.192) rotate(26 -54 -71)" gradientUnits="userSpaceOnUse" spreadMethod="pad"><stop offset="0" style="stop-opacity:1;stop-color:#9cae54"/><stop offset="1" style="stop-opacity:1;stop-color:#6e9662"/></linearGradient><linearGradient id="f" x1="0" x2="1" y1="0" y2="0" gradientTransform="scale(-399.236 399.236) rotate(26 -51.7 -68.5)" gradientUnits="userSpaceOnUse" spreadMethod="pad"><stop offset="0" style="stop-opacity:1;stop-color:#9cae54"/><stop offset="1" style="stop-opacity:1;stop-color:#6e9662"/></linearGradient><linearGradient id="h" x1="0" x2="1" y1="0" y2="0" gradientTransform="scale(-365.836 365.836) rotate(26 -57.4 -36)" gradientUnits="userSpaceOnUse" spreadMethod="pad"><stop offset="0" style="stop-opacity:1;stop-color:#9cae54"/><stop offset="1" style="stop-opacity:1;stop-color:#6e9662"/></linearGradient><linearGradient id="j" x1="0" x2="1" y1="0" y2="0" gradientTransform="rotate(26 -11586.6 19442.8) scale(565.198)" gradientUnits="userSpaceOnUse" spreadMethod="pad"><stop offset="0" style="stop-opacity:1;stop-color:#9cae54"/><stop offset="1" style="stop-opacity:1;stop-color:#6e9662"/></linearGradient><linearGradient id="l" x1="0" x2="1" y1="0" y2="0" gradientTransform="rotate(26 -10711.3 16543.5) scale(565.209)" gradientUnits="userSpaceOnUse" spreadMethod="pad"><stop offset="0" style="stop-opacity:1;stop-color:#9cae54"/><stop offset="1" style="stop-opacity:1;stop-color:#6e9662"/></linearGradient><clipPath id="a" clipPathUnits="userSpaceOnUse"><path d="m12584.7 5522.1 186.6-108.6 175.3 101.3-188.9 107z"/></clipPath><clipPath id="c" clipPathUnits="userSpaceOnUse"><path d="m14260.3 6654.5 203.5-118.6 191.3 110.6-206.1 116.8z"/></clipPath><clipPath id="e" clipPathUnits="userSpaceOnUse"><path d="m13737.8 6353.2 203.6-118.6 191.3 110.6-206.1 116.8z"/></clipPath><clipPath id="g" clipPathUnits="userSpaceOnUse"><path d="m7602.2 7936 186.6-108.6 175.3 101.3-188.9 107z"/></clipPath><clipPath id="i" clipPathUnits="userSpaceOnUse"><path d="m7820.1 7155.4-288.2-168L7261 7144l291.7 165.3z"/></clipPath><clipPath id="k" clipPathUnits="userSpaceOnUse"><path d="M6639.3 6468 6351 6300l-270.8 156.6 291.8 165.3z"/></clipPath></defs><path d="m9405 799.8 6895 4012L8688.4 9205 1795.1 5228.6 9405 799.8" style="fill:#6e6769;fill-opacity:1;fill-rule:nonzero;stroke:none" transform="matrix(.06894 0 0 -.06894 -123.8 926)"/><path d="M9405 799.8V466.3l6895 4012v333.4l-6895-4012" style="fill:#585052;fill-opacity:1;fill-rule:nonzero;stroke:none" transform="matrix(.06894 0 0 -.06894 -123.8 926)"/><path d="M1936.5 5640.6v-359.8L10146 503v359.8L1936.5 5640.6" style="fill:#4a3f41;fill-opacity:1;fill-rule:nonzero;stroke:none" transform="matrix(.0639 0 0 -.0639 -123.8 926)"/><path d="M8597.8 13494.4 16300 9048.9V4738.8L8597.8 9217.9v4276.5" style="fill:#e5dcce;fill-opacity:1;fill-rule:nonzero;stroke:none" transform="matrix(.06789 0 0 -.06789 -123.8 926)"/><path d="m16050.3 8910.2 249.7 145.4V4811.5l-249.7-145.3v4244" style="fill:#c7b3ab;fill-opacity:1;fill-rule:nonzero;stroke:none" transform="matrix(.06894 0 0 -.06894 -123.8 926)"/><path d="m8466 13287.7 250.8 144.7L16300 9055.6l-249.7-145.4-7584.2 4377.5" style="fill:#f3ede4;fill-opacity:1;fill-rule:nonzero;stroke:none" transform="matrix(.06894 0 0 -.06894 -123.8 926)"/><path d="M9403.4 14178.3 2206 10061.9V5483.6l7197.5 4152v4542.7" style="fill:#c7b3ab;fill-opacity:1;fill-rule:nonzero;stroke:none" transform="matrix(.0639 0 0 -.0639 -123.8 926)"/><path d="m2205.9 10061.9-269.4 156.8V5640.3l269.4-156.7v4578.3" style="fill:#e5dcce;fill-opacity:1;fill-rule:nonzero;stroke:none" transform="matrix(.0639 0 0 -.0639 -123.8 926)"/><path d="m9403.4 14178.3-270.4 156.2-7196.5-4115.8 269.4-156.8 7197.5 4116.4M5749.8 8303l688.2 396.2 432-250.2-1120.3-647v501" style="fill:#f3ede4;fill-opacity:1;fill-rule:nonzero;stroke:none" transform="matrix(.0639 0 0 -.0639 -123.8 926)"/><path d="M6869.9 12421.8V8449L6438 8699.2v3473.6l431.9 249" style="fill:#c7b3ab;fill-opacity:1;fill-rule:nonzero;stroke:none" transform="matrix(.0639 0 0 -.0639 -123.8 926)"/><path d="m5749.9 8115.2-.1-157.6L6869.9 8604l-136 79.2-984-568" style="fill:#e9eae9;fill-opacity:1;fill-rule:nonzero;stroke:none" transform="matrix(.0639 0 0 -.0639 -123.8 926)"/><path d="M5749.8 7957.6v-155.5l1120.1 647v155l-1120.1-646.5" style="fill:#e9eae9;fill-opacity:1;fill-rule:nonzero;stroke:none" transform="matrix(.0639 0 0 -.0639 -123.8 926)"/><path d="M6741.9 12347.6V8529.3l-135.6 78.8v3661.6l135.6 77.9" style="fill:#c8c7c5;fill-opacity:1;fill-rule:nonzero;stroke:none" transform="matrix(.0639 0 0 -.0639 -123.8 926)"/><path d="M6741.9 12347.6V8529.3l128 74.5v3817.8l-128-74" style="fill:#e9eae9;fill-opacity:1;fill-rule:nonzero;stroke:none" transform="matrix(.0639 0 0 -.0639 -123.8 926)"/><path d="M5749.8 11777.4v-155.5l1120.1 646.9v155l-1120.1-646.4" style="fill:#e9eae9;fill-opacity:1;fill-rule:nonzero;stroke:none" transform="matrix(.0639 0 0 -.0639 -123.8 926)"/><path d="M5749.9 11776V7957.6l128 74.5V11850l-128-73.9" style="fill:#e9eae9;fill-opacity:1;fill-rule:nonzero;stroke:none" transform="matrix(.0639 0 0 -.0639 -123.8 926)"/><path d="m5878 8188.7 728 421V12116l-728-419.7V8188.7" style="fill:#b3e5fc;fill-opacity:1;fill-rule:nonzero;stroke:none" transform="matrix(.0639 0 0 -.0639 -123.8 926)"/><path d="m4294.2 7464.8 688.2 396.2 432-250.3L4294 6963.8v501" style="fill:#f3ede4;fill-opacity:1;fill-rule:nonzero;stroke:none" transform="matrix(.0639 0 0 -.0639 -123.8 926)"/><path d="M5414.3 11583.6V7610.7L4982.4 7861v3473.5l432 249.1" style="fill:#c7b3ab;fill-opacity:1;fill-rule:nonzero;stroke:none" transform="matrix(.0639 0 0 -.0639 -123.8 926)"/><path d="m4294.3 7277-.1-157.6 1120.1 646.4-136 79.2-984-568" style="fill:#e9eae9;fill-opacity:1;fill-rule:nonzero;stroke:none" transform="matrix(.0639 0 0 -.0639 -123.8 926)"/><path d="M4294.2 7119.4v-155.6l1120.1 647v155l-1120.1-646.4" style="fill:#e9eae9;fill-opacity:1;fill-rule:nonzero;stroke:none" transform="matrix(.0639 0 0 -.0639 -123.8 926)"/><path d="M5286.3 11509.4V7691l-135.6 78.9v3661.5l135.6 78" style="fill:#c8c7c5;fill-opacity:1;fill-rule:nonzero;stroke:none" transform="matrix(.0639 0 0 -.0639 -123.8 926)"/><path d="M5286.3 11509.4V7691l128 74.5v3817.9l-128-74" style="fill:#e9eae9;fill-opacity:1;fill-rule:nonzero;stroke:none" transform="matrix(.0639 0 0 -.0639 -123.8 926)"/><path d="M4294.2 10939.2v-155.6l1120.1 647v155l-1120.1-646.4" style="fill:#e9eae9;fill-opacity:1;fill-rule:nonzero;stroke:none" transform="matrix(.0639 0 0 -.0639 -123.8 926)"/><path d="M4294.3 10937.8V7119.4l128 74.5v3817.8l-128-73.9" style="fill:#e9eae9;fill-opacity:1;fill-rule:nonzero;stroke:none" transform="matrix(.0639 0 0 -.0639 -123.8 926)"/><path d="m4422.4 7350.4 728.1 421.1v3506.1l-728.1-419.7V7350.4" style="fill:#b3e5fc;fill-opacity:1;fill-rule:nonzero;stroke:none" transform="matrix(.0639 0 0 -.0639 -123.8 926)"/><path d="m2838.6 6622.8 688.2 396.2 432-250.3-1120.3-646.9v501" style="fill:#f3ede4;fill-opacity:1;fill-rule:nonzero;stroke:none" transform="matrix(.0639 0 0 -.0639 -123.8 926)"/><path d="M3958.7 10741.5V6768.7L3526.8 7019v3473.5l432 249" style="fill:#c7b3ab;fill-opacity:1;fill-rule:nonzero;stroke:none" transform="matrix(.0639 0 0 -.0639 -123.8 926)"/><path d="m2838.7 6435-.1-157.6 1120.1 646.4-136 79.1-984-568" style="fill:#e9eae9;fill-opacity:1;fill-rule:nonzero;stroke:none" transform="matrix(.0639 0 0 -.0639 -123.8 926)"/><path d="M2838.6 6277.4v-155.6l1120.1 647v155l-1120.1-646.5" style="fill:#e9eae9;fill-opacity:1;fill-rule:nonzero;stroke:none" transform="matrix(.0639 0 0 -.0639 -123.8 926)"/><path d="M3830.7 10667.4V6849l-135.6 78.8v3661.6l135.6 78" style="fill:#c8c7c5;fill-opacity:1;fill-rule:nonzero;stroke:none" transform="matrix(.0639 0 0 -.0639 -123.8 926)"/><path d="M3830.7 10667.4V6849l128 74.5v3817.9l-128-74" style="fill:#e9eae9;fill-opacity:1;fill-rule:nonzero;stroke:none" transform="matrix(.0639 0 0 -.0639 -123.8 926)"/><path d="M2838.6 10097.1v-155.5l1120.1 647v154.9l-1120.1-646.4" style="fill:#e9eae9;fill-opacity:1;fill-rule:nonzero;stroke:none" transform="matrix(.0639 0 0 -.0639 -123.8 926)"/><path d="M2838.7 10095.7V6277.3l128 74.6v3817.8l-128-74" style="fill:#e9eae9;fill-opacity:1;fill-rule:nonzero;stroke:none" transform="matrix(.0639 0 0 -.0639 -123.8 926)"/><path d="m2966.8 6508.4 728.1 421.1v3506.1l-728.1-419.7V6508.4" style="fill:#b3e5fc;fill-opacity:1;fill-rule:nonzero;stroke:none" transform="matrix(.0639 0 0 -.0639 -123.8 926)"/><path d="m15298.9 4156.4-1164.2 678.4 998.6 582.4 1166.7-678.4-1001.2-582.3" style="fill:#5c5659;fill-opacity:1;fill-rule:nonzero;stroke:none" transform="matrix(.06789 0 0 -.06789 -123.8 926)"/><path d="m15298.9 4156.4 1000.9 582.5.2-.1-1001.1-582.4" style="fill:#4b4345;fill-opacity:1;fill-rule:nonzero;stroke:none" transform="matrix(.06789 0 0 -.06789 -123.8 926)"/><path d="m16300 4738.8-1166.7 678.5 1.2.6 1165.5-679.1" style="fill:#c0b8ac;fill-opacity:1;fill-rule:nonzero;stroke:none" transform="matrix(.06789 0 0 -.06789 -123.8 926)"/><path d="m12177.1 2045.5-1236.6 720.6 1922 1119.3 1238.1-721.4-1923.5-1118.5M7032 3417.7 4987.9 4617.2 7999.5 6371 10046 5170.2 7032 3417.7" style="fill:#5c5659;fill-opacity:1;fill-rule:nonzero;stroke:none" transform="matrix(.0639 0 0 -.0639 -123.8 926)"/><path d="M10010.4 11796.4V8045.9l1039.9 612.7v3742.9l-1039.9-605.1" style="fill:#4a3f41;fill-opacity:1;fill-rule:nonzero;stroke:none" transform="matrix(.0639 0 0 -.0639 -123.8 926)"/><path d="m11050.3 12401.5-1039.9-605.1-1654.3 955.6 1037 598.5 1657.2-949" style="fill:#6f6366;fill-opacity:1;fill-rule:nonzero;stroke:none" transform="matrix(.0639 0 0 -.0639 -123.8 926)"/><path d="M10010.4 11796.4V8045.9L8356.1 9001v3751l1654.3-955.6" style="fill:#241d1d;fill-opacity:1;fill-rule:nonzero;stroke:none" transform="matrix(.0639 0 0 -.0639 -123.8 926)"/><path d="M8856.5 12353.3V8602.9l68.6 38.6v3750.8l-68.6-39" style="fill:#352d2d;fill-opacity:1;fill-rule:nonzero;stroke:none" transform="matrix(.0639 0 0 -.0639 -123.8 926)"/><path d="m8925 12392.3-68.5-39-592.5 345.2 65 37.5 596-343.7" style="fill:#6f6366;fill-opacity:1;fill-rule:nonzero;stroke:none" transform="matrix(.0639 0 0 -.0639 -123.8 926)"/><path d="M8856.5 12354V8603L8264 8947v3751.4l592.5-344.5" style="fill:#585052;fill-opacity:1;fill-rule:nonzero;stroke:none" transform="matrix(.0639 0 0 -.0639 -123.8 926)"/><path d="M9911.6 11739.1V7988.6l74 43v3750.8l-74-43.3" style="fill:#4a3f41;fill-opacity:1;fill-rule:nonzero;stroke:none" transform="matrix(.0639 0 0 -.0639 -123.8 926)"/><path d="m9985.7 11782.4-74-43.3-1021.8 595.7 67 38.6 1028.8-591" style="fill:#6f6366;fill-opacity:1;fill-rule:nonzero;stroke:none" transform="matrix(.0639 0 0 -.0639 -123.8 926)"/><path d="M9911.6 11739.8V7988.6L8890 8583.4v3751.4l1021.7-595" style="fill:#585052;fill-opacity:1;fill-rule:nonzero;stroke:none" transform="matrix(.0639 0 0 -.0639 -123.8 926)"/><path d="M8915.2 11254.6V9797.3l-73.7 43v1457.3l73.7-43" style="fill:#656769;fill-opacity:1;fill-rule:nonzero;stroke:none" transform="matrix(.0639 0 0 -.0639 -123.8 926)"/><path d="m8841.5 11297.6 73.7-43 69.3 40.1-74.6 42.2-68.4-39.3" style="fill:#acacaa;fill-opacity:1;fill-rule:nonzero;stroke:none" transform="matrix(.0639 0 0 -.0639 -123.8 926)"/><path d="M8915.2 11254.6V9797.3l69.3 40.1v1457.3l-69.3-40.1" style="fill:#979898;fill-opacity:1;fill-rule:nonzero;stroke:none" transform="matrix(.0639 0 0 -.0639 -123.8 926)"/><path d="M8688 11514.7v-781.4l-360.6 209.4v781.6l360.5-209.6" style="fill:#352d2d;fill-opacity:1;fill-rule:nonzero;stroke:none" transform="matrix(.0639 0 0 -.0639 -123.8 926)"/><path d="M8644.8 11236.6V10852l-274.2 159.3v384.6l274.2-159.3" style="fill:#4a3f41;fill-opacity:1;fill-rule:nonzero;stroke:none" transform="matrix(.0639 0 0 -.0639 -123.8 926)"/><path d="M8370.6 11395.9v-384.6l69.3 40v304.4l-69.3 40.2" style="fill:#585052;fill-opacity:1;fill-rule:nonzero;stroke:none" transform="matrix(.0639 0 0 -.0639 -123.8 926)"/><path d="m8370.6 11011.3 69.3 40 204.9-115.7v-83.6l-274.2 159.3" style="fill:#6f6366;fill-opacity:1;fill-rule:nonzero;stroke:none" transform="matrix(.0639 0 0 -.0639 -123.8 926)"/><path d="M8748 11351.6V9894.3l-73.7 43v1457.2l73.7-42.9" style="fill:#656769;fill-opacity:1;fill-rule:nonzero;stroke:none" transform="matrix(.0639 0 0 -.0639 -123.8 926)"/><path d="m8674.3 11394.5 73.7-42.9 69.3 40-74.6 42.3-68.4-39.4" style="fill:#acacaa;fill-opacity:1;fill-rule:nonzero;stroke:none" transform="matrix(.0639 0 0 -.0639 -123.8 926)"/><path d="M8748 11351.6V9894.3l69.3 40v1457.3l-69.3-40" style="fill:#979898;fill-opacity:1;fill-rule:nonzero;stroke:none" transform="matrix(.0639 0 0 -.0639 -123.8 926)"/><path d="M8405.2 11503.4v-48.6l-34.6 20.1v48.6l34.6-20.1" style="fill:#d25773;fill-opacity:1;fill-rule:nonzero;stroke:none" transform="matrix(.0639 0 0 -.0639 -123.8 926)"/><path d="M8477.6 11461.4v-48.6l-34.7 20.1v48.6l34.7-20.1" style="fill:#c8c7c5;fill-opacity:1;fill-rule:nonzero;stroke:none" transform="matrix(.0639 0 0 -.0639 -123.8 926)"/><path d="M8549.9 11419.4v-48.6l-34.7 20.1v48.6l34.7-20.1" style="fill:#ca8725;fill-opacity:1;fill-rule:nonzero;stroke:none" transform="matrix(.0639 0 0 -.0639 -123.8 926)"/><path d="M8405.2 11614.2v-48.6l-34.6 20.1v48.6l34.6-20.1" style="fill:#80ac29;fill-opacity:1;fill-rule:nonzero;stroke:none" transform="matrix(.0639 0 0 -.0639 -123.8 926)"/><path d="M8549.9 11530.1v-48.6l-34.7 20.1v48.7l34.7-20.2" style="fill:#c8c7c5;fill-opacity:1;fill-rule:nonzero;stroke:none" transform="matrix(.0639 0 0 -.0639 -123.8 926)"/><path d="M8622.2 11377.3v-48.5l-34.6 20.1v48.6l34.6-20.2" style="fill:#ca8725;fill-opacity:1;fill-rule:nonzero;stroke:none" transform="matrix(.0639 0 0 -.0639 -123.8 926)"/><path d="M10923.3 11262.1V7511.7l1039.9 612.7v3742.8l-1039.9-605.1" style="fill:#d7dbd9;fill-opacity:1;fill-rule:nonzero;stroke:none" transform="matrix(.0639 0 0 -.0639 -123.8 926)"/><path d="m11963.2 11867.2-1039.9-605.1-876.6 514.1 1037 598.4 879.5-507.4" style="fill:#e9eae9;fill-opacity:1;fill-rule:nonzero;stroke:none" transform="matrix(.0639 0 0 -.0639 -123.8 926)"/><path d="M10923.3 11262.1V7511.7l-876.6 513.5v3751l876.6-514.1" style="fill:#c8c7c5;fill-opacity:1;fill-rule:nonzero;stroke:none" transform="matrix(.0639 0 0 -.0639 -123.8 926)"/><path d="M15012.5 6314.8V5288.4L10923.3 7665v1017.1l4089.2-2367.4" style="fill:#4a3f41;fill-opacity:1;fill-rule:nonzero;stroke:none" transform="matrix(.0639 0 0 -.0639 -123.8 926)"/><path d="M15012.5 5299v-120.8l-4054.3 2354.3v112.3l4054.3-2345.7" style="fill:#b0b0ae;fill-opacity:1;fill-rule:nonzero;stroke:none" transform="matrix(.0639 0 0 -.0639 -123.8 926)"/><path d="m10923.3 8774 4089.2-2359.7-.1-99.5L10923.3 8683v91" style="fill:#c8c7c5;fill-opacity:1;fill-rule:nonzero;stroke:none" transform="matrix(.0639 0 0 -.0639 -123.8 926)"/><path d="m15012.5 6414.3 1035.9 601.4v-99.5l-1036-601.4.1 99.5" style="fill:#d7dbd9;fill-opacity:1;fill-rule:nonzero;stroke:none" transform="matrix(.0639 0 0 -.0639 -123.8 926)"/><path d="m10923.3 8774 1039.9 600.2 4085.2-2358.5-1035.9-601.4-4089.2 2359.6" style="fill:#e9eae9;fill-opacity:1;fill-rule:nonzero;stroke:none" transform="matrix(.0639 0 0 -.0639 -123.8 926)"/><path d="m16174 6944.3-1037.2-601V5067l1037.2 609.5v1267.8" style="fill:#d7dbd9;fill-opacity:1;fill-rule:nonzero;stroke:none" transform="matrix(.0639 0 0 -.0639 -123.8 926)"/><path d="m15136.8 6343.4-124.3 70.9V5137.9l124.3-70.9v1276.3" style="fill:#c8c7c5;fill-opacity:1;fill-rule:nonzero;stroke:none" transform="matrix(.0639 0 0 -.0639 -123.8 926)"/><path d="m16174 6944.3-125.6 71.4-1035.9-601.4 124.3-71 1037.2 601" style="fill:#e9eae9;fill-opacity:1;fill-rule:nonzero;stroke:none" transform="matrix(.0639 0 0 -.0639 -123.8 926)"/><path d="m9973.2 4506.1 1074.5-620.7-.1-1040.6-1074.4 626.5v1034.8" style="fill:#4a3f41;fill-opacity:1;fill-rule:nonzero;stroke:none" transform="matrix(.0639 0 0 -.0639 -123.8 926)"/><path d="m11047.7 3885.4 1953.8 1130.5V3978.8l-1953.9-1134 .1 1040.6" style="fill:#585052;fill-opacity:1;fill-rule:nonzero;stroke:none" transform="matrix(.0639 0 0 -.0639 -123.8 926)"/><path d="m10039.1 3432.8 1008.6-588-.1-156.2-1008.5 593.8v150.4" style="fill:#b0b0ae;fill-opacity:1;fill-rule:nonzero;stroke:none" transform="matrix(.0639 0 0 -.0639 -123.8 926)"/><path d="m11047.7 2844.8 1898.9 1101.9v-152.4l-1899-1105.5.1 156" style="fill:#c8c7c5;fill-opacity:1;fill-rule:nonzero;stroke:none" transform="matrix(.0639 0 0 -.0639 -123.8 926)"/><path d="M9973.2 4506.1 11928 5637l1073.5-621-1953.8-1130.6-1074.5 620.7" style="fill:#afafad;fill-opacity:1;fill-rule:nonzero;stroke:none" transform="matrix(.0639 0 0 -.0639 -123.8 926)"/><path d="m15136.8 6343.3-4089.2-2359.6.1-99.6 4089.1 2368.3v90.9" style="fill:#d7dbd9;fill-opacity:1;fill-rule:nonzero;stroke:none" transform="matrix(.0639 0 0 -.0639 -123.8 926)"/><path d="m11047.6 3983.7-1199.3 694.5v-99.5l1199.4-694.6-.1 99.6" style="fill:#c8c7c5;fill-opacity:1;fill-rule:nonzero;stroke:none" transform="matrix(.0639 0 0 -.0639 -123.8 926)"/><path d="m15136.8 6343.3-1203.3 693.4-4085.2-2358.5 1199.3-694.5 4089.2 2359.6" style="fill:#e9eae9;fill-opacity:1;fill-rule:nonzero;stroke:none" transform="matrix(.0639 0 0 -.0639 -123.8 926)"/><path d="m13291.2 8505.9-842.2-490.6-1140.6 660 839.8 485 1143-654.4" style="fill:#403f42;fill-opacity:1;fill-rule:nonzero;stroke:none" transform="matrix(.0639 0 0 -.0639 -123.8 926)"/><path d="M11908.6 8598.7c-75-43.6-197.4-43.6-272.8 0-35.2 20.3-54.5 46.8-54.6 74.6 0 27.6 19 53.8 53.7 74 37.4 21.8 86.8 32.6 136.2 32.6 49.4 0 98.8-10.8 136.6-32.6 35.1-20.3 54.5-46.8 54.5-74.6.1-27.6-19-53.9-53.6-74zm53.9 122.2a143.6 143.6 0 0 1-46.6 40.6c-38.9 22.5-90.3 34.8-144.8 34.8-54.5 0-105.8-12.3-144.5-34.8a142.5 142.5 0 0 1-46-40.4 83.2 83.2 0 0 1-15.9-47.8 83 83 0 0 1 16.3-48.2c10.7-15.4 26.4-29 46.5-40.6 38.9-22.5 90.4-34.9 144.9-34.9s105.8 12.4 144.4 34.9a141.7 141.7 0 0 1 46 40.3 82.5 82.5 0 0 1 15.9 48 83 83 0 0 1-16.2 48.1m380.8-375.3c-75-43.6-197.4-43.6-272.9 0-35.1 20.3-54.5 46.8-54.5 74.6-.1 27.5 19 53.8 53.6 74 37.5 21.7 86.8 32.6 136.2 32.6 49.4 0 98.9-10.9 136.7-32.6 35.1-20.3 54.5-46.8 54.5-74.6.1-27.6-19-53.9-53.6-74zm53.9 122.2a144.3 144.3 0 0 1-46.6 40.6c-38.9 22.5-90.3 34.8-144.9 34.8-54.5 0-105.8-12.3-144.4-34.8a142 142 0 0 1-46-40.4 82.6 82.6 0 0 1-15.9-47.9c0-16.7 5.5-32.9 16.2-48.2 10.8-15.3 26.5-29 46.6-40.6 38.9-22.4 90.3-34.8 144.9-34.8 54.5 0 105.8 12.4 144.4 34.9a141.5 141.5 0 0 1 46 40.3 83.3 83.3 0 0 1 15.9 48 84 84 0 0 1-16.2 48.1m-99.3 354.8c-74.9-43.6-197.3-43.6-272.8 0-35.1 20.3-54.5 46.8-54.6 74.6 0 27.6 19.1 53.8 53.7 74 37.5 21.8 86.8 32.6 136.2 32.6 49.4 0 98.9-10.8 136.6-32.6 35.2-20.3 54.5-46.8 54.6-74.6 0-27.6-19-53.9-53.7-74zm54 122.2a144.3 144.3 0 0 1-46.6 40.6c-38.9 22.5-90.4 34.8-144.9 34.8s-105.8-12.3-144.5-34.8a142.7 142.7 0 0 1-45.9-40.3 82.5 82.5 0 0 1-15.9-48c0-16.7 5.5-32.9 16.2-48.1 10.8-15.3 26.4-29 46.6-40.6 38.9-22.5 90.3-34.9 144.8-34.9 54.5 0 105.8 12.4 144.5 34.9a142 142 0 0 1 46 40.3 82.5 82.5 0 0 1 15.8 48 83 83 0 0 1-16.1 48.1m380.7-375.3c-75-43.6-197.4-43.6-272.8 0-35.2 20.3-54.5 46.8-54.6 74.6 0 27.5 19 53.8 53.7 74 37.5 21.8 86.8 32.6 136.2 32.6 49.4 0 98.9-10.9 136.6-32.6 35.2-20.3 54.5-46.8 54.6-74.6 0-27.6-19-53.9-53.7-74zm53.9 122.2a142.3 142.3 0 0 1-46.6 40.6c-38.9 22.5-90.3 34.8-144.8 34.8-54.5 0-105.8-12.4-144.5-34.8a142.8 142.8 0 0 1-46-40.4 82.4 82.4 0 0 1-15.8-47.9 82 82 0 0 1 16.2-48.1 143 143 0 0 1 46.5-40.7c38.9-22.4 90.4-34.8 144.9-34.8s105.8 12.4 144.5 34.8a141.6 141.6 0 0 1 45.9 40.4 82.5 82.5 0 0 1 15.9 48 83 83 0 0 1-16.2 48.1" style="fill:#e9eae9;fill-opacity:1;fill-rule:nonzero;stroke:none" transform="matrix(.0639 0 0 -.0639 -123.8 926)"/><path d="M12796.6 9610.5v-322l823.6 487.7v314.3l-823.6-480" style="fill:#979898;fill-opacity:1;fill-rule:nonzero;stroke:none" transform="matrix(.0639 0 0 -.0639 -123.8 926)"/><path d="m13620.2 10090.5-823.6-480-1654.3 955.6 820.7 473.4 1657.2-949" style="fill:#afafad;fill-opacity:1;fill-rule:nonzero;stroke:none" transform="matrix(.0639 0 0 -.0639 -123.8 926)"/><path d="M12796.6 9610.5v-322l-1654.3 955.1v322.5l1654.3-955.6" style="fill:#808383;fill-opacity:1;fill-rule:nonzero;stroke:none" transform="matrix(.0639 0 0 -.0639 -123.8 926)"/><path d="M12698.5 10389.8v-835.3l921.7 536v827.7l-921.7-528.4" style="fill:#4a3f41;fill-opacity:1;fill-rule:nonzero;stroke:none" transform="matrix(.0639 0 0 -.0639 -123.8 926)"/><path d="m13620.2 10918.2-921.7-528.4-1654.3 942.9 918.8 534.5 1657.2-949" style="fill:#6f6366;fill-opacity:1;fill-rule:nonzero;stroke:none" transform="matrix(.0639 0 0 -.0639 -123.8 926)"/><path d="M12698.5 10389.8v-835.3l-1654.3 955.1v823.1l1654.3-942.9" style="fill:#585052;fill-opacity:1;fill-rule:nonzero;stroke:none" transform="matrix(.0639 0 0 -.0639 -123.8 926)"/><path d="m10016.1 4683.7 918.4-535.2 1371.2 799.5-915.7 528.7-1373.9-793" style="fill:#afafad;fill-opacity:1;fill-rule:nonzero;stroke:none" transform="matrix(.0639 0 0 -.0639 -123.8 926)"/><path d="m10606 4930.8 780.2 450.5 748.3-432-777.7-451.9-750.8 433.4" style="fill:#7ba8a0;fill-opacity:1;fill-rule:nonzero;stroke:none" transform="matrix(.0639 0 0 -.0639 -123.8 926)"/><path d="M11386.2 5381.3v-293.6l-523.9-304.8-256.3 147.9 780.2 450.5" style="fill:#979898;fill-opacity:1;fill-rule:nonzero;stroke:none" transform="matrix(.0639 0 0 -.0639 -123.8 926)"/><path d="M11386.2 5381.3v-293.6l493.1-286.7 255.2 148.3-748.3 432" style="fill:#808383;fill-opacity:1;fill-rule:nonzero;stroke:none" transform="matrix(.0639 0 0 -.0639 -123.8 926)"/><path d="m10199.1 4696.1 341 196.7 748.3-432-338.5-198.2-750.8 433.5" style="fill:#7ba8a0;fill-opacity:1;fill-rule:nonzero;stroke:none" transform="matrix(.0639 0 0 -.0639 -123.8 926)"/><path d="M10540.1 4892.8v-293.5l-84.7-51.2-256.3 148 341 196.7" style="fill:#979898;fill-opacity:1;fill-rule:nonzero;stroke:none" transform="matrix(.0639 0 0 -.0639 -123.8 926)"/><path d="M10540.1 4892.8v-293.5l493.1-286.8 255.2 148.3-748.3 432m1201.1 107.2v-56.1l54.5 32.6v56.1l-54.5-32.6" style="fill:#808383;fill-opacity:1;fill-rule:nonzero;stroke:none" transform="matrix(.0639 0 0 -.0639 -123.8 926)"/><path d="m11795.7 5032.6-54.5-32.6-375.4 216.6 55.1 32.1 374.8-216" style="fill:#afafad;fill-opacity:1;fill-rule:nonzero;stroke:none" transform="matrix(.0639 0 0 -.0639 -123.8 926)"/><path d="M11741.2 5000v-56l-375.4 216.6v56.1l375.4-216.6" style="fill:#808383;fill-opacity:1;fill-rule:nonzero;stroke:none" transform="matrix(.0639 0 0 -.0639 -123.8 926)"/><path d="M11791.3 4971.2v-282.3l55 32.2v282.2l-55-32.1" style="fill:#979898;fill-opacity:1;fill-rule:nonzero;stroke:none" transform="matrix(.0639 0 0 -.0639 -123.8 926)"/><path d="m11846.3 5003.3-55-32.1-51.8 30 55.7 31.6 51.1-29.5" style="fill:#afafad;fill-opacity:1;fill-rule:nonzero;stroke:none" transform="matrix(.0639 0 0 -.0639 -123.8 926)"/><path d="M11791.3 4971.2V4689l-51.8 29.9v282.3l51.8-30" style="fill:#808383;fill-opacity:1;fill-rule:nonzero;stroke:none" transform="matrix(.0639 0 0 -.0639 -123.8 926)"/><path d="M13541.9 7461.1v-38l574.1 330.5v37.9l-574.1-330.4" style="fill:#9a7238;fill-opacity:1;fill-rule:nonzero;stroke:none" transform="matrix(.0639 0 0 -.0639 -123.8 926)"/><path d="m14116 7791.5-574.1-330.4-810.8 469.5 574.1 330.4 810.8-469.5" style="fill:#c78e48;fill-opacity:1;fill-rule:nonzero;stroke:none" transform="matrix(.0639 0 0 -.0639 -123.8 926)"/><path d="M13541.9 7461.5v-38l-810.8 469.5v38l810.8-469.5" style="fill:#b37a42;fill-opacity:1;fill-rule:nonzero;stroke:none" transform="matrix(.0639 0 0 -.0639 -123.8 926)"/><path d="M13564.1 8499.6v-259l-140.6 81.8v259l140.6-81.8" style="fill:#ef9c2c;fill-opacity:1;fill-rule:nonzero;stroke:none" transform="matrix(.0639 0 0 -.0639 -123.8 926)"/><path d="m13423.5 8581.4 140.6-81.8 132 76.3-142.2 80.6-130.4-75" style="fill:#ca8725;fill-opacity:1;fill-rule:nonzero;stroke:none" transform="matrix(.0639 0 0 -.0639 -123.8 926)"/><path d="M13564.1 8499.6v-259l132 76.3v259l-132-76.3" style="fill:#ca8725;fill-opacity:1;fill-rule:nonzero;stroke:none" transform="matrix(.0639 0 0 -.0639 -123.8 926)"/><path d="m13563.9 8512.9-117.5 68.5 107.5 62 119.8-67.7zm-10 143.6-130.4-75 140.6-82 132 76.4-142.2 80.6" style="fill:#f1bb28;fill-opacity:1;fill-rule:nonzero;stroke:none" transform="matrix(.0639 0 0 -.0639 -123.8 926)"/><path d="M13737.9 8347.3v-200.6l-108.8 63.4v200.6l108.8-63.4" style="fill:#b78dc2;fill-opacity:1;fill-rule:nonzero;stroke:none" transform="matrix(.0639 0 0 -.0639 -123.8 926)"/><path d="m13629.1 8410.7 108.8-63.4 102.3 59.1-110.2 62.4-100.9-58.1" style="fill:#916d9f;fill-opacity:1;fill-rule:nonzero;stroke:none" transform="matrix(.0639 0 0 -.0639 -123.8 926)"/><path d="M13737.9 8347.3v-200.5l102.3 59v200.6l-102.3-59" style="fill:#916d9f;fill-opacity:1;fill-rule:nonzero;stroke:none" transform="matrix(.0639 0 0 -.0639 -123.8 926)"/><path d="m13737.8 8357.6-91 53 83.2 48 92.8-52.4zm-7.8 111.2-100.9-58.1 108.8-63.4 102.3 59.1-110.2 62.4" style="fill:#b7bad7;fill-opacity:1;fill-rule:nonzero;stroke:none" transform="matrix(.0639 0 0 -.0639 -123.8 926)"/><path d="M13957.9 8254.3v-241.7l-131.1 76.4v241.7l131.1-76.4" style="fill:#e4717f;fill-opacity:1;fill-rule:nonzero;stroke:none" transform="matrix(.0639 0 0 -.0639 -123.8 926)"/><path d="m13826.8 8330.7 131.1-76.4 123.2 71.3-132.7 75.2-121.6-70" style="fill:#d25773;fill-opacity:1;fill-rule:nonzero;stroke:none" transform="matrix(.0639 0 0 -.0639 -123.8 926)"/><path d="M13957.9 8254.4v-241.8l123.2 71.3v241.7l-123.2-71.2" style="fill:#d25773;fill-opacity:1;fill-rule:nonzero;stroke:none" transform="matrix(.0639 0 0 -.0639 -123.8 926)"/><path d="m13957.8 8266.7-109.8 64 100.4 57.8 111.8-63.2zm-9.4 134-121.6-70 131.1-76.4 123.2 71.3-132.7 75.2" style="fill:#ed8b98;fill-opacity:1;fill-rule:nonzero;stroke:none" transform="matrix(.0639 0 0 -.0639 -123.8 926)"/><path d="M14200.7 8121.8v-259l-140.5 81.8v259l140.5-81.8" style="fill:#ef9c2c;fill-opacity:1;fill-rule:nonzero;stroke:none" transform="matrix(.0639 0 0 -.0639 -123.8 926)"/><path d="m14060.2 8203.6 140.5-81.8 132.1 76.3-142.3 80.6-130.3-75" style="fill:#ca8725;fill-opacity:1;fill-rule:nonzero;stroke:none" transform="matrix(.0639 0 0 -.0639 -123.8 926)"/><path d="M14200.7 8121.8v-259l132.1 76.3v259l-132.1-76.3" style="fill:#ca8725;fill-opacity:1;fill-rule:nonzero;stroke:none" transform="matrix(.0639 0 0 -.0639 -123.8 926)"/><path d="m14200.6 8135-117.6 68.6 107.5 61.9 119.8-67.7zm-10.1 143.7-130.3-75 140.5-82 132.1 76.4-142.3 80.6" style="fill:#f1bb28;fill-opacity:1;fill-rule:nonzero;stroke:none" transform="matrix(.0639 0 0 -.0639 -123.8 926)"/><path d="M14374.6 7969.5v-200.6l-108.9 63.4v200.6l108.9-63.4" style="fill:#b78dc2;fill-opacity:1;fill-rule:nonzero;stroke:none" transform="matrix(.0639 0 0 -.0639 -123.8 926)"/><path d="m14265.7 8032.9 108.9-63.4 102.2 59-110.2 62.5-100.9-58.1" style="fill:#916d9f;fill-opacity:1;fill-rule:nonzero;stroke:none" transform="matrix(.0639 0 0 -.0639 -123.8 926)"/><path d="M14374.6 7969.5v-200.6l102.2 59.1v200.6l-102.2-59.1" style="fill:#916d9f;fill-opacity:1;fill-rule:nonzero;stroke:none" transform="matrix(.0639 0 0 -.0639 -123.8 926)"/><path d="m14374.4 7979.8-91 53 83.2 48 92.8-52.4zm-7.8 111.2-100.9-58.1 108.9-63.4 102.2 59-110.2 62.5" style="fill:#b7bad7;fill-opacity:1;fill-rule:nonzero;stroke:none" transform="matrix(.0639 0 0 -.0639 -123.8 926)"/><path d="M14594.5 7876.5v-241.7l-131.1 76.4v241.7l131.1-76.4" style="fill:#e4717f;fill-opacity:1;fill-rule:nonzero;stroke:none" transform="matrix(.0639 0 0 -.0639 -123.8 926)"/><path d="m14463.4 7952.9 131.1-76.4 123.2 71.2-132.7 75.3-121.6-70.1" style="fill:#d25773;fill-opacity:1;fill-rule:nonzero;stroke:none" transform="matrix(.0639 0 0 -.0639 -123.8 926)"/><path d="M14594.5 7876.6v-241.8l123.2 71.3v241.7l-123.2-71.2" style="fill:#d25773;fill-opacity:1;fill-rule:nonzero;stroke:none" transform="matrix(.0639 0 0 -.0639 -123.8 926)"/><path d="m14594.4 7889-109.7 63.9 100.3 57.7 111.8-63zm-9.4 134-121.6-70.1 131.1-76.4 123.2 71.2-132.7 75.3" style="fill:#ed8b98;fill-opacity:1;fill-rule:nonzero;stroke:none" transform="matrix(.0639 0 0 -.0639 -123.8 926)"/><path d="M15373.9 7281.1v-566.2l513.2 302.4v562.5l-513.2-298.7" style="fill:#d7dbd9;fill-opacity:1;fill-rule:nonzero;stroke:none" transform="matrix(.0639 0 0 -.0639 -123.8 926)"/><path d="m15887.1 7579.8-513.2-298.7-816.5 471.7 511.8 295.3 817.9-468.3" style="fill:#e9eae9;fill-opacity:1;fill-rule:nonzero;stroke:none" transform="matrix(.0639 0 0 -.0639 -123.8 926)"/><path d="M15373.9 7281.1v-566.2l-816.5 471.4v566.5l816.5-471.7" style="fill:#c8c7c5;fill-opacity:1;fill-rule:nonzero;stroke:none" transform="matrix(.0639 0 0 -.0639 -123.8 926)"/><path d="M15170.1 7350.4v-469.6l-576.3 332v469.8l576.3-332.2" style="fill:#403f42;fill-opacity:1;fill-rule:nonzero;stroke:none" transform="matrix(.0639 0 0 -.0639 -123.8 926)"/><path d="m14621.8 7634.2 520.3-300v-405l-520.3 299.8Zm-28 48.4v-469.8l576.3-332v469.6l-576.3 332.2" style="fill:#2d2c2e;fill-opacity:1;fill-rule:nonzero;stroke:none" transform="matrix(.0639 0 0 -.0639 -123.8 926)"/><path d="m14712.4 7498.9 339.1-195.3v-239l-339.1 195zm-16.8 29v-278l372.6-214.4v277.8l-372.6 214.6" style="fill:#2d2c2e;fill-opacity:1;fill-rule:nonzero;stroke:none" transform="matrix(.0639 0 0 -.0639 -123.8 926)"/><path d="M15339.2 7252.7V6783l-137.4 79v470l137.4-79.2" style="fill:#afafad;fill-opacity:1;fill-rule:nonzero;stroke:none" transform="matrix(.0639 0 0 -.0639 -123.8 926)"/><path d="M12771.3 5413.5v-243.2l-151.5 88.2-35.1 263.6 186.6-108.6" style="fill:#d7dbd9;fill-opacity:1;fill-rule:nonzero;stroke:none" transform="matrix(.0639 0 0 -.0639 -123.8 926)"/><g clip-path="url(#a)" transform="matrix(.0639 0 0 -.0639 -123.8 926)"><path d="m12584.7 5522.1 186.6-108.6 175.3 101.3-188.9 107-173-99.7" style="fill:url(#b);fill-opacity:1;fill-rule:nonzero;stroke:none"/></g><path d="M12771.3 5413.5v-243.1l145.4 84 29.9 260.5-175.3-101.4" style="fill:#c8c7c5;fill-opacity:1;fill-rule:nonzero;stroke:none" transform="matrix(.0639 0 0 -.0639 -123.8 926)"/><path d="m12771.1 5431.1-156.1 91 142.7 82.2 159-89.8zm-13.4 190.7-173-99.7 186.6-108.6 175.3 101.3-188.9 107" style="fill:#f5f4fb;fill-opacity:1;fill-rule:nonzero;stroke:none" transform="matrix(.0639 0 0 -.0639 -123.8 926)"/><path d="M12771.1 5610v-116.4l-48 27.6v116.3l48-27.6" style="fill:#7a4b32;fill-opacity:1;fill-rule:nonzero;stroke:none" transform="matrix(.0639 0 0 -.0639 -123.8 926)"/><path d="M12771.1 5610v-116.4l48.3 27.8v116.4l-48.3-27.9" style="fill:#6f3c2a;fill-opacity:1;fill-rule:nonzero;stroke:none" transform="matrix(.0639 0 0 -.0639 -123.8 926)"/><path d="M12770.9 5735.7v-203.5l-130.6 75.2v203.5l130.6-75.2" style="fill:#78c165;fill-opacity:1;fill-rule:nonzero;stroke:none" transform="matrix(.0639 0 0 -.0639 -123.8 926)"/><path d="m12640.3 5811 130.6-75.3 131.4 75.8-130.7 75.2-131.3-75.8" style="fill:#81c96e;fill-opacity:1;fill-rule:nonzero;stroke:none" transform="matrix(.0639 0 0 -.0639 -123.8 926)"/><path d="M12770.9 5735.8v-203.5l131.4 75.8v203.5l-131.4-75.8" style="fill:#4ca062;fill-opacity:1;fill-rule:nonzero;stroke:none" transform="matrix(.0639 0 0 -.0639 -123.8 926)"/><path d="M14463.8 6536v-375.3l-203.5 118.6v375.2l203.5-118.6" style="fill:#4a3f41;fill-opacity:1;fill-rule:nonzero;stroke:none" transform="matrix(.0639 0 0 -.0639 -123.8 926)"/><g clip-path="url(#c)" transform="matrix(.0639 0 0 -.0639 -123.8 926)"><path d="m14260.3 6654.5 203.5-118.6 191.3 110.6-206.1 116.8-188.7-108.8" style="fill:url(#d);fill-opacity:1;fill-rule:nonzero;stroke:none"/></g><path d="M14463.8 6536v-375.2l191.3 110.5v375.3l-191.3-110.6" style="fill:#585052;fill-opacity:1;fill-rule:nonzero;stroke:none" transform="matrix(.0639 0 0 -.0639 -123.8 926)"/><path d="m14463.7 6555.2-170.4 99.2 155.7 89.7 173.6-98zm-14.7 208-188.7-108.7 203.5-118.6 191.3 110.6-206.1 116.8" style="fill:#6f6366;fill-opacity:1;fill-rule:nonzero;stroke:none" transform="matrix(.0639 0 0 -.0639 -123.8 926)"/><path d="M13941.4 6234.6v-375.2l-203.6 118.6v375.2l203.6-118.6" style="fill:#4a3f41;fill-opacity:1;fill-rule:nonzero;stroke:none" transform="matrix(.0639 0 0 -.0639 -123.8 926)"/><g clip-path="url(#e)" transform="matrix(.0639 0 0 -.0639 -123.8 926)"><path d="m13737.8 6353.2 203.6-118.6 191.3 110.6-206.1 116.8-188.8-108.8" style="fill:url(#f);fill-opacity:1;fill-rule:nonzero;stroke:none"/></g><path d="M13941.4 6234.7v-375.2l191.3 110.6v375.2l-191.3-110.6" style="fill:#585052;fill-opacity:1;fill-rule:nonzero;stroke:none" transform="matrix(.0639 0 0 -.0639 -123.8 926)"/><path d="m13941.2 6254-170.4 99.1 155.8 89.8 173.6-98zm-14.6 208-188.8-108.8 203.6-118.6 191.3 110.6-206.1 116.8" style="fill:#6f6366;fill-opacity:1;fill-rule:nonzero;stroke:none" transform="matrix(.0639 0 0 -.0639 -123.8 926)"/><path d="M14900.6 4198.8v-54l-385.2 223v54l385.2-223" style="fill:#c8c7c5;fill-opacity:1;fill-rule:nonzero;stroke:none" transform="matrix(.0639 0 0 -.0639 -123.8 926)"/><path d="m14515.4 4421.8 385.2-223 384 223.5-385.7 222.6-383.5-223.1" style="fill:#e9eae9;fill-opacity:1;fill-rule:nonzero;stroke:none" transform="matrix(.0639 0 0 -.0639 -123.8 926)"/><path d="M14900.6 4198.8v-53.9l384 223.5v53.9l-384-223.5m1.1 819.9v-644.1l-87 50.7v644l87-50.6" style="fill:#d7dbd9;fill-opacity:1;fill-rule:nonzero;stroke:none" transform="matrix(.0639 0 0 -.0639 -123.8 926)"/><path d="m14814.7 5069.3 87-50.6 81.7 47.2-88 49.9-80.7-46.5" style="fill:#de3122;fill-opacity:1;fill-rule:nonzero;stroke:none" transform="matrix(.0639 0 0 -.0639 -123.8 926)"/><path d="M14901.7 5018.7v-644.1l81.7 47.3v644l-81.7-47.2" style="fill:#c8c7c5;fill-opacity:1;fill-rule:nonzero;stroke:none" transform="matrix(.0639 0 0 -.0639 -123.8 926)"/><path d="M14900.9 5209v-207.6l-543.5 314.5v207.8l543.5-314.6" style="fill:#ca8725;fill-opacity:1;fill-rule:nonzero;stroke:none" transform="matrix(.0639 0 0 -.0639 -123.8 926)"/><path d="m14357.4 5523.6 543.5-314.5 541.7 315.4-544.2 314-541-314.9" style="fill:#f1bb28;fill-opacity:1;fill-rule:nonzero;stroke:none" transform="matrix(.0639 0 0 -.0639 -123.8 926)"/><path d="M14900.9 5209.1v-207.7l541.7 315.4v207.7l-541.7-315.4" style="fill:#ef9c2c;fill-opacity:1;fill-rule:nonzero;stroke:none" transform="matrix(.0639 0 0 -.0639 -123.8 926)"/><path d="M13883.8 3609.6v-54l-385.3 223v53.9l385.3-222.9" style="fill:#c8c7c5;fill-opacity:1;fill-rule:nonzero;stroke:none" transform="matrix(.0639 0 0 -.0639 -123.8 926)"/><path d="m13498.5 3832.5 385.3-222.9 383.9 223.5-385.7 222.6-383.5-223.2" style="fill:#e9eae9;fill-opacity:1;fill-rule:nonzero;stroke:none" transform="matrix(.0639 0 0 -.0639 -123.8 926)"/><path d="M13883.8 3609.6v-53.9l383.9 223.5v53.9l-383.9-223.5m1 819.9v-644.1l-87 50.7v644l87-50.6" style="fill:#d7dbd9;fill-opacity:1;fill-rule:nonzero;stroke:none" transform="matrix(.0639 0 0 -.0639 -123.8 926)"/><path d="m13797.8 4480.1 87-50.6 81.7 47.2-88 49.9-80.7-46.5" style="fill:#de3122;fill-opacity:1;fill-rule:nonzero;stroke:none" transform="matrix(.0639 0 0 -.0639 -123.8 926)"/><path d="M13884.8 4429.5v-644.1l81.7 47.3v644l-81.7-47.2" style="fill:#c8c7c5;fill-opacity:1;fill-rule:nonzero;stroke:none" transform="matrix(.0639 0 0 -.0639 -123.8 926)"/><path d="M13884 4619.9v-207.8l-543.4 314.6v207.7l543.4-314.5" style="fill:#ca8725;fill-opacity:1;fill-rule:nonzero;stroke:none" transform="matrix(.0639 0 0 -.0639 -123.8 926)"/><path d="m13340.6 4934.4 543.4-314.5 541.7 315.4-544.2 314-540.9-314.9" style="fill:#f1bb28;fill-opacity:1;fill-rule:nonzero;stroke:none" transform="matrix(.0639 0 0 -.0639 -123.8 926)"/><path d="M13884 4619.9v-207.8l541.7 315.5v207.7l-541.7-315.4" style="fill:#ef9c2c;fill-opacity:1;fill-rule:nonzero;stroke:none" transform="matrix(.0639 0 0 -.0639 -123.8 926)"/><path d="M13860.6 10762.8V9022l590.9 344.2V11107l-590.9-344.3" style="fill:#ca8725;fill-opacity:1;fill-rule:nonzero;stroke:none" transform="matrix(.0639 0 0 -.0639 -123.8 926)"/><path d="m14451.5 11107.1-590.9-344.3-530.5 311.6 588.9 339.5 532.5-306.8" style="fill:#f1bb28;fill-opacity:1;fill-rule:nonzero;stroke:none" transform="matrix(.0639 0 0 -.0639 -123.8 926)"/><path d="M13860.6 10762.8V9022l-530.5 311.2v1741.2l530.5-311.6" style="fill:#ef9c2c;fill-opacity:1;fill-rule:nonzero;stroke:none" transform="matrix(.0639 0 0 -.0639 -123.8 926)"/><path d="M14562.2 10357.9V8617l590.9 344.2v1740.9l-590.9-344.2" style="fill:#ca8725;fill-opacity:1;fill-rule:nonzero;stroke:none" transform="matrix(.0639 0 0 -.0639 -123.8 926)"/><path d="m15153.1 10702.1-590.9-344.2-530.5 311.6 588.9 339.4 532.5-306.8" style="fill:#f1bb28;fill-opacity:1;fill-rule:nonzero;stroke:none" transform="matrix(.0639 0 0 -.0639 -123.8 926)"/><path d="M14562.2 10357.9V8617l-530.5 311.2v1741.3l530.5-311.6" style="fill:#ef9c2c;fill-opacity:1;fill-rule:nonzero;stroke:none" transform="matrix(.0639 0 0 -.0639 -123.8 926)"/><path d="M15263.8 9953V8212l590.9 344.3v1740.9l-590.9-344.3" style="fill:#ca8725;fill-opacity:1;fill-rule:nonzero;stroke:none" transform="matrix(.0639 0 0 -.0639 -123.8 926)"/><path d="m15854.7 10297.2-590.9-344.3-530.5 311.6 588.9 339.4 532.5-306.7" style="fill:#f1bb28;fill-opacity:1;fill-rule:nonzero;stroke:none" transform="matrix(.0639 0 0 -.0639 -123.8 926)"/><path d="M15263.8 9953V8212l-530.5 311.3v1741.2l530.5-311.6" style="fill:#ef9c2c;fill-opacity:1;fill-rule:nonzero;stroke:none" transform="matrix(.0639 0 0 -.0639 -123.8 926)"/><path d="M15718.2 9400.1V7686.3L16300 8025v1714l-581.8-339" style="fill:#ca8725;fill-opacity:1;fill-rule:nonzero;stroke:none" transform="matrix(.06491 0 0 -.06491 -123.8 926)"/><path d="m16300 9739-581.8-338.9L15196 9707l579.6 334.2 524.4-302" style="fill:#f1bb28;fill-opacity:1;fill-rule:nonzero;stroke:none" transform="matrix(.06491 0 0 -.06491 -123.8 926)"/><path d="M15965.4 9548V7807l-530.5 311.2v1741.2l530.5-311.5" style="fill:#ef9c2c;fill-opacity:1;fill-rule:nonzero;stroke:none" transform="matrix(.0639 0 0 -.0639 -123.8 926)"/><path d="M13890.8 9040v1740.4l12 6.9V9046.9l-12-7m707.4-401.6v1740.5l12 6.9V8645.3l-12-7m703.7-403.7v1740.5l12 7V8241.6l-12-7m703.1-404.1V9571l12 7V7837.5l-12-7" style="fill:#a97220;fill-opacity:1;fill-rule:nonzero;stroke:none" transform="matrix(.0639 0 0 -.0639 -123.8 926)"/><path d="M13359.2 11091.2h-.1l12.1 7h.1l-12.1-7" style="fill:#c0b8ac;fill-opacity:1;fill-rule:nonzero;stroke:none" transform="matrix(.0639 0 0 -.0639 -123.8 926)"/><path d="m13890.8 10780.4 12 7-12-7" style="fill:#a97220;fill-opacity:1;fill-rule:nonzero;stroke:none" transform="matrix(.0639 0 0 -.0639 -123.8 926)"/><path d="m13890.8 10780.4-531.6 310.8 12.1 7 531.5-310.8-12-7" style="fill:#cca023;fill-opacity:1;fill-rule:nonzero;stroke:none" transform="matrix(.0639 0 0 -.0639 -123.8 926)"/><path d="m14598.1 10378.8 12 7h.1l-12.1-7m-531.5 310.8-.1.1 12.1 6.9h.1l-12.1-7" style="fill:#a97220;fill-opacity:1;fill-rule:nonzero;stroke:none" transform="matrix(.0639 0 0 -.0639 -123.8 926)"/><path d="m14598.1 10378.8-531.5 310.8 12.1 7 531.5-310.8-12.1-7" style="fill:#cca023;fill-opacity:1;fill-rule:nonzero;stroke:none" transform="matrix(.0639 0 0 -.0639 -123.8 926)"/><path d="M14770.3 10285.8v.1l12.1 6.9-12.1-7m531.6-310.8h-.1l12.1 7-12-6.9" style="fill:#a97220;fill-opacity:1;fill-rule:nonzero;stroke:none" transform="matrix(.0639 0 0 -.0639 -123.8 926)"/><path d="m15301.8 9975-531.5 310.8 12.1 7 531.5-310.7-12.1-7" style="fill:#cca023;fill-opacity:1;fill-rule:nonzero;stroke:none" transform="matrix(.0639 0 0 -.0639 -123.8 926)"/><path d="m15301.9 9975.1 12 7-12-7" style="fill:#8d5f1d;fill-opacity:1;fill-rule:nonzero;stroke:none" transform="matrix(.0639 0 0 -.0639 -123.8 926)"/><path d="m15473.6 9881.8-.2.1 12.1 7 .2-.1-12.1-7" style="fill:#a97220;fill-opacity:1;fill-rule:nonzero;stroke:none" transform="matrix(.0639 0 0 -.0639 -123.8 926)"/><path d="m16005 9571-531.4 310.8 12.1 7L16017 9578l-12-7" style="fill:#cca023;fill-opacity:1;fill-rule:nonzero;stroke:none" transform="matrix(.0639 0 0 -.0639 -123.8 926)"/><path d="m11589.2 7279.8-22 12.7-13.7 8v1016.8l35.7-20.6v-1017" style="fill:#332c2c;fill-opacity:1;fill-rule:nonzero;stroke:none" transform="matrix(.0639 0 0 -.0639 -123.8 926)"/><path d="m11589.2 7279.7-22 12.8 22-12.7v-.1" style="fill:#77797a;fill-opacity:1;fill-rule:nonzero;stroke:none" transform="matrix(.0639 0 0 -.0639 -123.8 926)"/><path d="m12317.6 7875-35.6 20.6v.3l35.6-20.6v-.3" style="fill:#4b4647;fill-opacity:1;fill-rule:nonzero;stroke:none" transform="matrix(.0639 0 0 -.0639 -123.8 926)"/><path d="m12317.6 6858.3-35.6 20.7v1016.6l35.6-20.6V6858.3m692.8-354.5v969.6l35.6-20.6v-928.4l-14.9-8.6-20.7-12" style="fill:#332c2c;fill-opacity:1;fill-rule:nonzero;stroke:none" transform="matrix(.0639 0 0 -.0639 -123.8 926)"/><path d="m13031.1 6515.8 14.9 8.6-14.9-8.6" style="fill:#9e9e9e;fill-opacity:1;fill-rule:nonzero;stroke:none" transform="matrix(.0639 0 0 -.0639 -123.8 926)"/><path d="M11167.3 8444.5v-110.6l155.2-91v110.4l-155.2 91.2m698.8-401.7v-110.5l155.2-91v110.3l-155.2 91.2m727.8-421v-110.5l155.2-91v110.3l-155.2 91.2m744-428.6v-110.5l155.3-91V7102l-155.3 91.1" style="fill:#c8c7c5;fill-opacity:1;fill-rule:nonzero;stroke:none" transform="matrix(.0639 0 0 -.0639 -123.8 926)"/><path d="m4497 5761.2 627-361.2v-102.5l-627 364.7v99" style="fill:#ca8725;fill-opacity:1;fill-rule:nonzero;stroke:none" transform="matrix(.0639 0 0 -.0639 -123.8 926)"/><path d="m5124 5400 643.5 376.3v-102.5L5124 5297.5V5400" style="fill:#ef9c2c;fill-opacity:1;fill-rule:nonzero;stroke:none" transform="matrix(.0639 0 0 -.0639 -123.8 926)"/><path d="m4497 5761.2 646 375.6 624.5-360.5L5124 5400l-627 361.2" style="fill:#f1bb28;fill-opacity:1;fill-rule:nonzero;stroke:none" transform="matrix(.0639 0 0 -.0639 -123.8 926)"/><path d="m5049.6 5899.4 74.4-42.8v-456.8l-74.4 43v456.7" style="fill:#ca8725;fill-opacity:1;fill-rule:nonzero;stroke:none" transform="matrix(.0639 0 0 -.0639 -123.8 926)"/><path d="m5124 5856.6 643.6 379.7v-460.2L5124 5399.8v456.7" style="fill:#ef9c2c;fill-opacity:1;fill-rule:nonzero;stroke:none" transform="matrix(.0639 0 0 -.0639 -123.8 926)"/><path d="m5049.6 5899.4 648.4 377 69.6-40-643.6-379.8-74.4 42.8" style="fill:#f1bb28;fill-opacity:1;fill-rule:nonzero;stroke:none" transform="matrix(.0639 0 0 -.0639 -123.8 926)"/><path d="m4497 6315 627-361.3v-102.5l-627 364.7v99" style="fill:#ca8725;fill-opacity:1;fill-rule:nonzero;stroke:none" transform="matrix(.0639 0 0 -.0639 -123.8 926)"/><path d="m5124 5953.7 643.5 376.3v-102.5L5124 5851.2v102.5" style="fill:#ef9c2c;fill-opacity:1;fill-rule:nonzero;stroke:none" transform="matrix(.0639 0 0 -.0639 -123.8 926)"/><path d="m4497 6315 646 375.6 624.5-360.6-643.5-376.3-627 361.2" style="fill:#f1bb28;fill-opacity:1;fill-rule:nonzero;stroke:none" transform="matrix(.0639 0 0 -.0639 -123.8 926)"/><path d="m4497 6896.3 74.5-43V6272l-74.4 43v581.3" style="fill:#ca8725;fill-opacity:1;fill-rule:nonzero;stroke:none" transform="matrix(.0639 0 0 -.0639 -123.8 926)"/><path d="m4571.5 6853.4 643.6 379.7v-584.8L4571.5 6272v581.4" style="fill:#ef9c2c;fill-opacity:1;fill-rule:nonzero;stroke:none" transform="matrix(.0639 0 0 -.0639 -123.8 926)"/><path d="m4497 6896.3 648.5 377 69.6-40.2-643.6-379.7-74.4 42.9" style="fill:#f1bb28;fill-opacity:1;fill-rule:nonzero;stroke:none" transform="matrix(.0639 0 0 -.0639 -123.8 926)"/><path d="m4423 7239.5 74.5-42.9 74-343.2-74.4 43-74 343.1" style="fill:#ca8725;fill-opacity:1;fill-rule:nonzero;stroke:none" transform="matrix(.0639 0 0 -.0639 -123.8 926)"/><path d="m4497.5 7196.6 643.5 379.7 74-346.6-643.5-376.3-74 343.2" style="fill:#ef9c2c;fill-opacity:1;fill-rule:nonzero;stroke:none" transform="matrix(.0639 0 0 -.0639 -123.8 926)"/><path d="m4423 7239.5 648.4 377 69.7-40.1-643.6-379.8-74.5 43" style="fill:#f1bb28;fill-opacity:1;fill-rule:nonzero;stroke:none" transform="matrix(.0639 0 0 -.0639 -123.8 926)"/><path d="m6010.2 6630 626.8-361v-102.5L6010 6531v99" style="fill:#ca8725;fill-opacity:1;fill-rule:nonzero;stroke:none" transform="matrix(.0639 0 0 -.0639 -123.8 926)"/><path d="m6637 6268.9 643.6 376.3v-102.5L6637 6166.4v102.5" style="fill:#ef9c2c;fill-opacity:1;fill-rule:nonzero;stroke:none" transform="matrix(.0639 0 0 -.0639 -123.8 926)"/><path d="m6010.2 6630 645.9 375.7 624.5-360.5-643.5-376.3-627 361.2" style="fill:#f1bb28;fill-opacity:1;fill-rule:nonzero;stroke:none" transform="matrix(.0639 0 0 -.0639 -123.8 926)"/><path d="m6562.7 6768.3 74.4-42.9v-456.7l-74.4 43v456.6" style="fill:#ca8725;fill-opacity:1;fill-rule:nonzero;stroke:none" transform="matrix(.0639 0 0 -.0639 -123.8 926)"/><path d="m6637.1 6725.4 643.6 379.8V6645L6637 6268.7v456.7" style="fill:#ef9c2c;fill-opacity:1;fill-rule:nonzero;stroke:none" transform="matrix(.0639 0 0 -.0639 -123.8 926)"/><path d="m6562.7 6768.3 648.4 377 69.6-40.1-643.6-379.8-74.4 43" style="fill:#f1bb28;fill-opacity:1;fill-rule:nonzero;stroke:none" transform="matrix(.0639 0 0 -.0639 -123.8 926)"/><path d="m6010.2 7183.8 626.9-361.2V6720l-627 364.7v99" style="fill:#ca8725;fill-opacity:1;fill-rule:nonzero;stroke:none" transform="matrix(.0639 0 0 -.0639 -123.8 926)"/><path d="m6637 6822.6 643.6 376.3v-102.5L6637 6720v102.5" style="fill:#ef9c2c;fill-opacity:1;fill-rule:nonzero;stroke:none" transform="matrix(.0639 0 0 -.0639 -123.8 926)"/><path d="m6010.2 7183.8 645.9 375.6 624.5-360.5-643.5-376.3-627 361.2" style="fill:#f1bb28;fill-opacity:1;fill-rule:nonzero;stroke:none" transform="matrix(.0639 0 0 -.0639 -123.8 926)"/><path d="m6010.2 7765.1 74.4-42.9V7141l-74.4 43v581" style="fill:#ca8725;fill-opacity:1;fill-rule:nonzero;stroke:none" transform="matrix(.0639 0 0 -.0639 -123.8 926)"/><path d="m6084.6 7722.2 643.6 379.8v-584.8l-643.6-376.3v581.3" style="fill:#ef9c2c;fill-opacity:1;fill-rule:nonzero;stroke:none" transform="matrix(.0639 0 0 -.0639 -123.8 926)"/><path d="m6010.2 7765.1 648.4 377 69.6-40.1-643.6-379.8-74.4 43" style="fill:#f1bb28;fill-opacity:1;fill-rule:nonzero;stroke:none" transform="matrix(.0639 0 0 -.0639 -123.8 926)"/><path d="m5936.1 8108.4 74.5-43 74-343.2-74.4 43-74 343.2" style="fill:#ca8725;fill-opacity:1;fill-rule:nonzero;stroke:none" transform="matrix(.0639 0 0 -.0639 -123.8 926)"/><path d="m6010.6 8065.5 643.5 379.7 74-346.7-643.5-376.3-74 343.3" style="fill:#ef9c2c;fill-opacity:1;fill-rule:nonzero;stroke:none" transform="matrix(.0639 0 0 -.0639 -123.8 926)"/><path d="m5936.1 8108.4 648.4 377 69.7-40.2-643.6-379.7-74.5 42.9" style="fill:#f1bb28;fill-opacity:1;fill-rule:nonzero;stroke:none" transform="matrix(.0639 0 0 -.0639 -123.8 926)"/><path d="m9220.2 7160.5-3081-1777v-145.3l3081 1784.6v137.7" style="fill:#d7dbd9;fill-opacity:1;fill-rule:nonzero;stroke:none" transform="matrix(.0639 0 0 -.0639 -123.8 926)"/><path d="m6139.2 5383.5-1427.4 826.6v-145.4l1427.5-826.5-.1 145.3" style="fill:#c8c7c5;fill-opacity:1;fill-rule:nonzero;stroke:none" transform="matrix(.0639 0 0 -.0639 -123.8 926)"/><path d="m9220.2 7160.5-1430.8 825.6-3077.6-1776 1427.4-826.6 3081 1777" style="fill:#e9eae9;fill-opacity:1;fill-rule:nonzero;stroke:none" transform="matrix(.0639 0 0 -.0639 -123.8 926)"/><path d="M4586.2 6138.6 6015 5312V4006l-1428.8 835.2v1297.3" style="fill:#c8c7c5;fill-opacity:1;fill-rule:nonzero;stroke:none" transform="matrix(.0639 0 0 -.0639 -123.8 926)"/><path d="m6015 5312 124.2 70.9V4077l-124.3-70.9V5312" style="fill:#d7dbd9;fill-opacity:1;fill-rule:nonzero;stroke:none" transform="matrix(.0639 0 0 -.0639 -123.8 926)"/><path d="m4586.2 6138.6 125.6 71.5 1427.4-827.2-124.2-71-1428.8 826.7" style="fill:#e9eae9;fill-opacity:1;fill-rule:nonzero;stroke:none" transform="matrix(.0639 0 0 -.0639 -123.8 926)"/><path d="m6550.4 4565.6 627-361.2v-102.5l-627 364.7v99" style="fill:#ca8725;fill-opacity:1;fill-rule:nonzero;stroke:none" transform="matrix(.0639 0 0 -.0639 -123.8 926)"/><path d="m7177.4 4204.4 643.5 376.3v-102.5l-643.6-376.3.1 102.5" style="fill:#ef9c2c;fill-opacity:1;fill-rule:nonzero;stroke:none" transform="matrix(.0639 0 0 -.0639 -123.8 926)"/><path d="m6550.4 4565.6 646 375.6 624.5-360.5-643.5-376.3-627 361.2" style="fill:#f1bb28;fill-opacity:1;fill-rule:nonzero;stroke:none" transform="matrix(.0639 0 0 -.0639 -123.8 926)"/><path d="m6550.4 5021.2 74.5-42.9v-456.8l-74.4 43v456.7" style="fill:#ca8725;fill-opacity:1;fill-rule:nonzero;stroke:none" transform="matrix(.0639 0 0 -.0639 -123.8 926)"/><path d="m6625 4978.3 643.5 379.8v-460.3l-643.6-376.3v456.8" style="fill:#ef9c2c;fill-opacity:1;fill-rule:nonzero;stroke:none" transform="matrix(.0639 0 0 -.0639 -123.8 926)"/><path d="m6550.4 5021.2 648.5 377 69.6-40.1-643.6-379.8-74.4 43" style="fill:#c9db49;fill-opacity:1;fill-rule:nonzero;stroke:none" transform="matrix(.0639 0 0 -.0639 -123.8 926)"/><path d="m6550.4 5119.3 627-361.2v-102.5l-627 364.7v99" style="fill:#ca8725;fill-opacity:1;fill-rule:nonzero;stroke:none" transform="matrix(.0639 0 0 -.0639 -123.8 926)"/><path d="m7177.4 4758.1 643.5 376.3V5032l-643.6-376.3.1 102.5" style="fill:#ef9c2c;fill-opacity:1;fill-rule:nonzero;stroke:none" transform="matrix(.0639 0 0 -.0639 -123.8 926)"/><path d="m6550.4 5119.3 646 375.6 624.5-360.5-643.5-376.3-627 361.2" style="fill:#f1bb28;fill-opacity:1;fill-rule:nonzero;stroke:none" transform="matrix(.0639 0 0 -.0639 -123.8 926)"/><path d="m7103 5382.4 74.4-43v-581.3l-74.5 43v581.3" style="fill:#ca8725;fill-opacity:1;fill-rule:nonzero;stroke:none" transform="matrix(.0639 0 0 -.0639 -123.8 926)"/><path d="m7177.4 5339.5 643.5 379.7v-584.8l-643.6-376.3.1 581.4" style="fill:#ef9c2c;fill-opacity:1;fill-rule:nonzero;stroke:none" transform="matrix(.0639 0 0 -.0639 -123.8 926)"/><path d="m7103 5382.4 648.3 377 69.6-40.2-643.5-379.7-74.5 42.9" style="fill:#c9db49;fill-opacity:1;fill-rule:nonzero;stroke:none" transform="matrix(.0639 0 0 -.0639 -123.8 926)"/><path d="m7190.3 5706.1 74.4-42.9-87.4-323.7-74.4 43 87.4 323.6" style="fill:#ca8725;fill-opacity:1;fill-rule:nonzero;stroke:none" transform="matrix(.0639 0 0 -.0639 -123.8 926)"/><path d="m7264.8 5663.3 643.5 379.7-87.4-327.2-643.6-376.3 87.4 323.8" style="fill:#ef9c2c;fill-opacity:1;fill-rule:nonzero;stroke:none" transform="matrix(.0639 0 0 -.0639 -123.8 926)"/><path d="m7190.3 5706.1 648.4 377 69.6-40.1-643.5-379.8-74.5 43" style="fill:#f1bb28;fill-opacity:1;fill-rule:nonzero;stroke:none" transform="matrix(.0639 0 0 -.0639 -123.8 926)"/><path d="m8051.4 5439.8 627-361.2-.2-102.5-626.8 364.7v99" style="fill:#ca8725;fill-opacity:1;fill-rule:nonzero;stroke:none" transform="matrix(.0639 0 0 -.0639 -123.8 926)"/><path d="m8678.3 5078.6 643.5 376.3v-102.5L8678.2 4976l.1 102.5" style="fill:#ef9c2c;fill-opacity:1;fill-rule:nonzero;stroke:none" transform="matrix(.0639 0 0 -.0639 -123.8 926)"/><path d="m8051.4 5439.8 645.9 375.6 624.5-360.5-643.5-376.3-627 361.2" style="fill:#f1bb28;fill-opacity:1;fill-rule:nonzero;stroke:none" transform="matrix(.0639 0 0 -.0639 -123.8 926)"/><path d="m8051.4 5895.4 74.4-42.9v-456.8l-74.4 43v456.7" style="fill:#ca8725;fill-opacity:1;fill-rule:nonzero;stroke:none" transform="matrix(.0639 0 0 -.0639 -123.8 926)"/><path d="m8125.8 5852.5 643.6 379.8V5772l-643.6-376.4v456.8" style="fill:#ef9c2c;fill-opacity:1;fill-rule:nonzero;stroke:none" transform="matrix(.0639 0 0 -.0639 -123.8 926)"/><path d="m8051.4 5895.4 648.4 377 69.6-40.1-643.6-379.8-74.4 43" style="fill:#c9db49;fill-opacity:1;fill-rule:nonzero;stroke:none" transform="matrix(.0639 0 0 -.0639 -123.8 926)"/><path d="m8051.4 5993.5 627-361.2-.2-102.5-626.8 364.7v99" style="fill:#ca8725;fill-opacity:1;fill-rule:nonzero;stroke:none" transform="matrix(.0639 0 0 -.0639 -123.8 926)"/><path d="m8678.3 5632.3 643.5 376.3v-102.5l-643.6-376.3.1 102.5" style="fill:#ef9c2c;fill-opacity:1;fill-rule:nonzero;stroke:none" transform="matrix(.0639 0 0 -.0639 -123.8 926)"/><path d="m8051.4 5993.5 645.9 375.6 624.5-360.5-643.5-376.3-627 361.2" style="fill:#f1bb28;fill-opacity:1;fill-rule:nonzero;stroke:none" transform="matrix(.0639 0 0 -.0639 -123.8 926)"/><path d="m8603.8 6256.6 74.5-43v-581.3l-74.5 43v581.3" style="fill:#ca8725;fill-opacity:1;fill-rule:nonzero;stroke:none" transform="matrix(.0639 0 0 -.0639 -123.8 926)"/><path d="m8678.3 6213.7 643.5 379.7v-584.8l-643.6-376.3.1 581.4" style="fill:#ef9c2c;fill-opacity:1;fill-rule:nonzero;stroke:none" transform="matrix(.0639 0 0 -.0639 -123.8 926)"/><path d="m8603.8 6256.6 648.4 377 69.6-40.2-643.5-379.7-74.5 42.9" style="fill:#c9db49;fill-opacity:1;fill-rule:nonzero;stroke:none" transform="matrix(.0639 0 0 -.0639 -123.8 926)"/><path d="m8691.2 6580.3 74.4-42.9-87.4-323.7-74.4 43 87.4 323.6" style="fill:#ca8725;fill-opacity:1;fill-rule:nonzero;stroke:none" transform="matrix(.0639 0 0 -.0639 -123.8 926)"/><path d="m8765.6 6537.4 643.6 379.8-87.4-327.2-643.6-376.3 87.4 323.7" style="fill:#ef9c2c;fill-opacity:1;fill-rule:nonzero;stroke:none" transform="matrix(.0639 0 0 -.0639 -123.8 926)"/><path d="m8691.2 6580.3 648.4 377 69.6-40.1-643.5-379.8-74.5 43" style="fill:#f1bb28;fill-opacity:1;fill-rule:nonzero;stroke:none" transform="matrix(.0639 0 0 -.0639 -123.8 926)"/><path d="M7788.8 7827.4v-243.2l-151.5 88.3-35 263.5 186.5-108.6" style="fill:#d7dbd9;fill-opacity:1;fill-rule:nonzero;stroke:none" transform="matrix(.0639 0 0 -.0639 -123.8 926)"/><g clip-path="url(#g)" transform="matrix(.0639 0 0 -.0639 -123.8 926)"><path d="m7602.2 7936 186.6-108.6 175.3 101.3-188.9 107-173-99.7" style="fill:url(#h);fill-opacity:1;fill-rule:nonzero;stroke:none"/></g><path d="M7788.8 7827.5v-243.2l145.5 84.1 29.8 260.4-175.3-101.3" style="fill:#c8c7c5;fill-opacity:1;fill-rule:nonzero;stroke:none" transform="matrix(.0639 0 0 -.0639 -123.8 926)"/><path d="m7788.6 7845-156 91 142.6 82.2 159.1-89.8zm-13.4 190.7-173-99.7 186.6-108.6 175.3 101.3-188.9 107" style="fill:#f5f4fb;fill-opacity:1;fill-rule:nonzero;stroke:none" transform="matrix(.0639 0 0 -.0639 -123.8 926)"/><path d="M7788.7 8023.9v-116.4l-48 27.6v116.4l48-27.6" style="fill:#7a4b32;fill-opacity:1;fill-rule:nonzero;stroke:none" transform="matrix(.0639 0 0 -.0639 -123.8 926)"/><path d="M7788.7 8023.9v-116.4l48.2 27.9v116.3l-48.2-27.8" style="fill:#6f3c2a;fill-opacity:1;fill-rule:nonzero;stroke:none" transform="matrix(.0639 0 0 -.0639 -123.8 926)"/><path d="M7788.5 8149.6v-203.5l-130.7 75.2v203.5l130.7-75.2" style="fill:#78c165;fill-opacity:1;fill-rule:nonzero;stroke:none" transform="matrix(.0639 0 0 -.0639 -123.8 926)"/><path d="m7657.8 8224.8 130.7-75.2 131.3 75.8-130.7 75.2-131.3-75.8" style="fill:#81c96e;fill-opacity:1;fill-rule:nonzero;stroke:none" transform="matrix(.0639 0 0 -.0639 -123.8 926)"/><path d="M7788.5 8149.7v-203.5l131.3 75.8v203.5l-131.3-75.8" style="fill:#4ca062;fill-opacity:1;fill-rule:nonzero;stroke:none" transform="matrix(.0639 0 0 -.0639 -123.8 926)"/><path d="M15750 5715.9v-856.8l480 276.3 70 897-550-316.5" style="fill:#c1bfbd;fill-opacity:1;fill-rule:nonzero;stroke:none" transform="matrix(.06573 0 0 -.06573 -123.8 926)"/><path d="m16300 6032.4-550-316.5-552.9 319 550 316.6 552.9-319.1" style="fill:#c1bfbd;fill-opacity:1;fill-rule:nonzero;stroke:none" transform="matrix(.06573 0 0 -.06573 -123.8 926)"/><path d="M16199.2 5879.3V4998l-472.3 272.6-96.4 936.8 568.7-328.2" style="fill:#d3d3d1;fill-opacity:1;fill-rule:nonzero;stroke:none" transform="matrix(.0639 0 0 -.0639 -123.8 926)"/><path d="m15293.7 6035 453.4 260.8 456.3-263.3-453.4-261zm453.4 316.5-550-316.5 552.9-319.1 550 316.5-552.9 319" style="fill:#676163;fill-opacity:1;fill-rule:nonzero;stroke:none" transform="matrix(.06573 0 0 -.06573 -123.8 926)"/><path d="m15841 6333.3 2.9-527.3 456.1 262.4-459 265" style="fill:#d3d3d1;fill-opacity:1;fill-rule:nonzero;stroke:none" transform="matrix(.06534 0 0 -.06534 -123.8 926)"/><path d="m15630.5 6207.1 568.7-328.2-3-137-548.9 302.1-16.8 163.1" style="fill:#585052;fill-opacity:1;fill-rule:nonzero;stroke:none" transform="matrix(.0639 0 0 -.0639 -123.8 926)"/><path d="m15747.1 5582.7 541.8 308 11.1 141.7-550-316.5-2.9-133.2" style="fill:#4a3f41;fill-opacity:1;fill-rule:nonzero;stroke:none" transform="matrix(.06573 0 0 -.06573 -123.8 926)"/><path d="m15729.9 6207 114.5-66 353.3 207-1.5 127.3-466.3-268.3" style="fill:#4a3f41;fill-opacity:1;fill-rule:nonzero;stroke:none" transform="matrix(.0639 0 0 -.0639 -123.8 926)"/><path d="m15842.5 6208.8 354.1-199.9 103.4 59.5-459 265 1.5-124.6" style="fill:#585052;fill-opacity:1;fill-rule:nonzero;stroke:none" transform="matrix(.06534 0 0 -.06534 -123.8 926)"/><path d="M7531.9 6987.4V6847l288.2 167.9v140.5L7532 6987.6" style="fill:#d7dbd9;fill-opacity:1;fill-rule:nonzero;stroke:none" transform="matrix(.0639 0 0 -.0639 -123.8 926)"/><g clip-path="url(#i)" transform="matrix(.0639 0 0 -.0639 -123.8 926)"><path d="m7820.1 7155.4-288.2-168L7261 7144l291.7 165.3 267.3-154" style="fill:url(#j);fill-opacity:1;fill-rule:nonzero;stroke:none"/></g><path d="M7531.9 6987.6v-140.7L7261 7003.5v140.6l270.8-156.5" style="fill:#c8c7c5;fill-opacity:1;fill-rule:nonzero;stroke:none" transform="matrix(.0639 0 0 -.0639 -123.8 926)"/><path d="m7307.1 7143.5 245.7 138.8 220.5-127-241.2-140.5zm-46 .5 270.8-156.5 288.2 167.9-267.3 154L7261 7144" style="fill:#f5f4fb;fill-opacity:1;fill-rule:nonzero;stroke:none" transform="matrix(.0639 0 0 -.0639 -123.8 926)"/><path d="M6351 6300v-140.6l288.3 167.9v140.6L6351 6300" style="fill:#d7dbd9;fill-opacity:1;fill-rule:nonzero;stroke:none" transform="matrix(.0639 0 0 -.0639 -123.8 926)"/><g clip-path="url(#k)" transform="matrix(.0639 0 0 -.0639 -123.8 926)"><path d="M6639.3 6468 6351 6300l-270.8 156.6 291.8 165.3 267.3-154" style="fill:url(#l);fill-opacity:1;fill-rule:nonzero;stroke:none"/></g><path d="M6351 6300.1v-140.6L6080.2 6316v140.6L6351 6300" style="fill:#c8c7c5;fill-opacity:1;fill-rule:nonzero;stroke:none" transform="matrix(.0639 0 0 -.0639 -123.8 926)"/><path d="m6126.2 6456 245.8 138.8 220.5-127-241.2-140.5zm-46 .6L6351 6300l288.3 168-267.3 153.9-291.8-165.3" style="fill:#f5f4fb;fill-opacity:1;fill-rule:nonzero;stroke:none" transform="matrix(.0639 0 0 -.0639 -123.8 926)"/><path d="m10923.3 10016.6-876.6 506.3v38.6l876.6-506.3v-38.6m0-1297.5-876.6 506.3v38.7l876.6-506.4v-38.6" style="fill:#87888a;fill-opacity:1;fill-rule:nonzero;stroke:none" transform="matrix(.0639 0 0 -.0639 -123.8 926)"/></svg>