<svg xmlns="http://www.w3.org/2000/svg" xml:space="preserve" width="559.343" height="500"><defs><linearGradient id="b" x1="0" x2="1" y1="0" y2="0" gradientTransform="scale(-365.804 365.804) rotate(26 -50 -69)" gradientUnits="userSpaceOnUse" spreadMethod="pad"><stop offset="0" style="stop-opacity:1;stop-color:#9cae54"/><stop offset="1" style="stop-opacity:1;stop-color:#6e9662"/></linearGradient><linearGradient id="d" x1="0" x2="1" y1="0" y2="0" gradientTransform="scale(-399.192 399.192) rotate(26 -54 -71)" gradientUnits="userSpaceOnUse" spreadMethod="pad"><stop offset="0" style="stop-opacity:1;stop-color:#9cae54"/><stop offset="1" style="stop-opacity:1;stop-color:#6e9662"/></linearGradient><linearGradient id="f" x1="0" x2="1" y1="0" y2="0" gradientTransform="scale(-399.236 399.236) rotate(26 -51.7 -68.5)" gradientUnits="userSpaceOnUse" spreadMethod="pad"><stop offset="0" style="stop-opacity:1;stop-color:#9cae54"/><stop offset="1" style="stop-opacity:1;stop-color:#6e9662"/></linearGradient><linearGradient id="h" x1="0" x2="1" y1="0" y2="0" gradientTransform="scale(-365.836 365.836) rotate(26 -57.4 -36)" gradientUnits="userSpaceOnUse" spreadMethod="pad"><stop offset="0" style="stop-opacity:1;stop-color:#9cae54"/><stop offset="1" style="stop-opacity:1;stop-color:#6e9662"/></linearGradient><linearGradient id="j" x1="0" x2="1" y1="0" y2="0" gradientTransform="rotate(26 -11586.6 19442.8) scale(565.198)" gradientUnits="userSpaceOnUse" spreadMethod="pad"><stop offset="0" style="stop-opacity:1;stop-color:#9cae54"/><stop offset="1" style="stop-opacity:1;stop-color:#6e9662"/></linearGradient><linearGradient id="l" x1="0" x2="1" y1="0" y2="0" gradientTransform="scale(565.209) rotate(26 -18.951 29.27)" gradientUnits="userSpaceOnUse" spreadMethod="pad"><stop offset="0" style="stop-opacity:1;stop-color:#9cae54"/><stop offset="1" style="stop-opacity:1;stop-color:#6e9662"/></linearGradient><clipPath id="a" clipPathUnits="userSpaceOnUse"><path d="m12584.7 5522.1 186.6-108.6 175.3 101.3-188.9 107z"/></clipPath><clipPath id="c" clipPathUnits="userSpaceOnUse"><path d="m14260.3 6654.5 203.5-118.6 191.3 110.6-206.1 116.8z"/></clipPath><clipPath id="e" clipPathUnits="userSpaceOnUse"><path d="m13737.8 6353.2 203.6-118.6 191.3 110.6-206.1 116.8z"/></clipPath><clipPath id="g" clipPathUnits="userSpaceOnUse"><path d="m7602.2 7936 186.6-108.6 175.3 101.3-188.9 107z"/></clipPath><clipPath id="i" clipPathUnits="userSpaceOnUse"><path d="m7820.1 7155.4-288.2-168L7261 7144l291.7 165.3z"/></clipPath><clipPath id="k" clipPathUnits="userSpaceOnUse"><path d="M6639.3 6468 6351 6300l-270.8 156.6 291.8 165.3Z"/></clipPath></defs><path d="m293.459 487.137 265.884-154.71-293.518-169.41L.007 316.353l293.452 170.783" style="fill:#6e6769;fill-opacity:1;fill-rule:nonzero;stroke:none;stroke-width:.0385619"/><path d="M293.459 487.137v12.86l265.884-154.71V332.43L293.459 487.14" style="fill:#585052;fill-opacity:1;fill-rule:nonzero;stroke:none;stroke-width:.0385619"/><path d="M0 316.368v12.86L293.43 500v-12.86L0 316.368" style="fill:#4a3f41;fill-opacity:1;fill-rule:nonzero;stroke:none;stroke-width:.0357427"/><path d="M257.282 5.535 549.769 174.35v163.674L257.282 167.933V5.535" style="fill:#e5dcce;fill-opacity:1;fill-rule:nonzero;stroke:none;stroke-width:.0379746"/><path d="m549.714 174.385 9.629-5.607v163.66l-9.63 5.603V174.385" style="fill:#c7b3ab;fill-opacity:1;fill-rule:nonzero;stroke:none;stroke-width:.0385619"/><path d="M257.25 5.58 266.92 0l292.423 168.778-9.63 5.607L257.254 5.58" style="fill:#f3ede4;fill-opacity:1;fill-rule:nonzero;stroke:none;stroke-width:.0385619"/><path d="M266.887 11.207 9.633 158.34v163.64L266.89 173.577V11.207" style="fill:#c7b3ab;fill-opacity:1;fill-rule:nonzero;stroke:none;stroke-width:.0357427"/><path d="M9.63 158.339 0 152.734V316.38l9.63 5.6V158.34" style="fill:#e5dcce;fill-opacity:1;fill-rule:nonzero;stroke:none;stroke-width:.0357427"/><path d="m266.887 11.207-9.664-5.583L0 152.734l9.63 5.605L266.886 11.207m-130.59 210 24.599-14.162 15.44 8.943-40.042 23.126v-17.907" style="fill:#f3ede4;fill-opacity:1;fill-rule:nonzero;stroke:none;stroke-width:.0357427"/><path d="M176.333 73.99v141.998l-15.437-8.943V82.89l15.437-8.9" style="fill:#c7b3ab;fill-opacity:1;fill-rule:nonzero;stroke:none;stroke-width:.0357427"/><path d="m136.301 227.92-.004 5.632 40.036-23.104-4.861-2.83-35.171 20.301" style="fill:#e9eae9;fill-opacity:1;fill-rule:nonzero;stroke:none;stroke-width:.0357427"/><path d="M136.298 233.552v5.558l40.035-23.125v-5.54l-40.035 23.107" style="fill:#e9eae9;fill-opacity:1;fill-rule:nonzero;stroke:none;stroke-width:.0357427"/><path d="M171.758 76.642v136.476l-4.847-2.816V79.426l4.847-2.784" style="fill:#c8c7c5;fill-opacity:1;fill-rule:nonzero;stroke:none;stroke-width:.0357427"/><path d="M171.758 76.642v136.476l4.575-2.663V73.997l-4.575 2.645" style="fill:#e9eae9;fill-opacity:1;fill-rule:nonzero;stroke:none;stroke-width:.0357427"/><path d="M136.298 97.022v5.558l40.035-23.122v-5.54l-40.035 23.104" style="fill:#e9eae9;fill-opacity:1;fill-rule:nonzero;stroke:none;stroke-width:.0357427"/><path d="M136.301 97.072v136.48l4.575-2.663V94.427l-4.575 2.642" style="fill:#e9eae9;fill-opacity:1;fill-rule:nonzero;stroke:none;stroke-width:.0357427"/><path d="m140.88 225.292 26.02-15.048V84.92l-26.02 15v125.372" style="fill:#95d1f9;fill-opacity:1;fill-rule:nonzero;stroke:none;stroke-width:.0357427"/><path d="m84.27 251.166 24.599-14.161 15.44 8.946-40.046 23.122v-17.907" style="fill:#f3ede4;fill-opacity:1;fill-rule:nonzero;stroke:none;stroke-width:.0357427"/><path d="M124.306 103.95V245.95l-15.437-8.946V112.853l15.44-8.904" style="fill:#c7b3ab;fill-opacity:1;fill-rule:nonzero;stroke:none;stroke-width:.0357427"/><path d="m84.274 257.879-.003 5.633 40.035-23.104-4.861-2.831-35.17 20.302" style="fill:#e9eae9;fill-opacity:1;fill-rule:nonzero;stroke:none;stroke-width:.0357427"/><path d="M84.27 263.512v5.561l40.036-23.125v-5.54l-40.035 23.104" style="fill:#e9eae9;fill-opacity:1;fill-rule:nonzero;stroke:none;stroke-width:.0357427"/><path d="M119.731 106.601v136.48l-4.847-2.82V109.39l4.847-2.788" style="fill:#c8c7c5;fill-opacity:1;fill-rule:nonzero;stroke:none;stroke-width:.0357427"/><path d="M119.731 106.601v136.48l4.575-2.663V103.956l-4.575 2.645" style="fill:#e9eae9;fill-opacity:1;fill-rule:nonzero;stroke:none;stroke-width:.0357427"/><path d="M84.27 126.982v5.561l40.036-23.125v-5.54l-40.035 23.104" style="fill:#e9eae9;fill-opacity:1;fill-rule:nonzero;stroke:none;stroke-width:.0357427"/><path d="M84.274 127.032v136.48l4.575-2.663V124.39l-4.575 2.642" style="fill:#e9eae9;fill-opacity:1;fill-rule:nonzero;stroke:none;stroke-width:.0357427"/><path d="m88.853 255.255 26.024-15.051V114.886l-26.024 15.002v125.367" style="fill:#95d1f9;fill-opacity:1;fill-rule:nonzero;stroke:none;stroke-width:.0357427"/><path d="M32.244 281.262 56.842 267.1l15.44 8.947-40.042 23.122v-17.907" style="fill:#f3ede4;fill-opacity:1;fill-rule:nonzero;stroke:none;stroke-width:.0357427"/><path d="M72.279 134.048v141.999L56.842 267.1V142.948l15.44-8.9" style="fill:#c7b3ab;fill-opacity:1;fill-rule:nonzero;stroke:none;stroke-width:.0357427"/><path d="m32.247 287.974-.004 5.633 40.036-23.104-4.861-2.827-35.17 20.302M32.244 293.607v5.562l40.035-23.126v-5.54l-40.035 23.108" style="fill:#e9eae9;fill-opacity:1;fill-rule:nonzero;stroke:none;stroke-width:.0357427"/><path d="M67.704 136.697v136.48l-4.847-2.817V139.484l4.847-2.787" style="fill:#c8c7c5;fill-opacity:1;fill-rule:nonzero;stroke:none;stroke-width:.0357427"/><path d="M67.704 136.697v136.48l4.575-2.663V134.052l-4.575 2.645" style="fill:#e9eae9;fill-opacity:1;fill-rule:nonzero;stroke:none;stroke-width:.0357427"/><path d="M32.244 157.08v5.559l40.035-23.126v-5.536L32.244 157.08" style="fill:#e9eae9;fill-opacity:1;fill-rule:nonzero;stroke:none;stroke-width:.0357427"/><path d="M32.247 157.13v136.48l4.575-2.666V154.486l-4.575 2.645" style="fill:#e9eae9;fill-opacity:1;fill-rule:nonzero;stroke:none;stroke-width:.0357427"/><path d="M36.826 285.35 62.85 270.3V144.981l-26.024 15v125.369" style="fill:#95d1f9;fill-opacity:1;fill-rule:nonzero;stroke:none;stroke-width:.0357427"/><path d="m511.753 360.141-44.21-25.762 37.922-22.116 44.304 25.762-38.02 22.112" style="fill:#5c5659;fill-opacity:1;fill-rule:nonzero;stroke:none;stroke-width:.0379746"/><path d="m511.753 360.141 38.009-22.12.008.004-38.016 22.116" style="fill:#4b4345;fill-opacity:1;fill-rule:nonzero;stroke:none;stroke-width:.0379746"/><path d="m549.77 338.025-44.305-25.766.045-.023 44.26 25.789" style="fill:#c0b8ac;fill-opacity:1;fill-rule:nonzero;stroke:none;stroke-width:.0379746"/><path d="m366.027 444.867-44.2-25.756 68.698-40.007 44.253 25.785-68.751 39.978m-183.9-49.046-73.062-42.874 107.643-62.685 73.148 42.92-107.729 62.639" style="fill:#5c5659;fill-opacity:1;fill-rule:nonzero;stroke:none;stroke-width:.0357427"/><path d="M288.583 96.343v134.053l37.17-21.9V74.717l-37.17 21.627" style="fill:#4a3f41;fill-opacity:1;fill-rule:nonzero;stroke:none;stroke-width:.0357427"/><path d="m325.752 74.715-37.169 21.628-59.129-34.156 37.065-21.392 59.233 33.92" style="fill:#6f6366;fill-opacity:1;fill-rule:nonzero;stroke:none;stroke-width:.0357427"/><path d="M288.583 96.343v134.053l-59.129-34.138V62.188l59.13 34.155" style="fill:#241d1d;fill-opacity:1;fill-rule:nonzero;stroke:none;stroke-width:.0357427"/><path d="M247.34 76.438v134.05l2.452-1.38V75.044l-2.452 1.394" style="fill:#352d2d;fill-opacity:1;fill-rule:nonzero;stroke:none;stroke-width:.0357427"/><path d="m249.788 75.044-2.448 1.394-21.178-12.339 2.323-1.34 21.303 12.285" style="fill:#6f6366;fill-opacity:1;fill-rule:nonzero;stroke:none;stroke-width:.0357427"/><path d="M247.34 76.413v134.07l-21.178-12.295V64.103l21.178 12.313" style="fill:#585052;fill-opacity:1;fill-rule:nonzero;stroke:none;stroke-width:.0357427"/><path d="M285.052 98.391v134.053l2.645-1.537V96.843l-2.645 1.548" style="fill:#4a3f41;fill-opacity:1;fill-rule:nonzero;stroke:none;stroke-width:.0357427"/><path d="m287.7 96.843-2.645 1.548L248.534 77.1l2.394-1.38L287.7 96.843" style="fill:#6f6366;fill-opacity:1;fill-rule:nonzero;stroke:none;stroke-width:.0357427"/><path d="M285.052 98.366v134.078l-36.515-21.26V77.1l36.518 21.267" style="fill:#585052;fill-opacity:1;fill-rule:nonzero;stroke:none;stroke-width:.0357427"/><path d="M249.438 115.708v52.088l-2.634-1.537v-52.088l2.634 1.537" style="fill:#656769;fill-opacity:1;fill-rule:nonzero;stroke:none;stroke-width:.0357427"/><path d="m246.804 114.171 2.634 1.537 2.477-1.433-2.667-1.508-2.444 1.404" style="fill:#acacaa;fill-opacity:1;fill-rule:nonzero;stroke:none;stroke-width:.0357427"/><path d="M249.438 115.708v52.088l2.477-1.433v-52.088l-2.477 1.433" style="fill:#979898;fill-opacity:1;fill-rule:nonzero;stroke:none;stroke-width:.0357427"/><path d="M241.317 106.412v27.93l-12.889-7.485V98.92l12.885 7.492" style="fill:#352d2d;fill-opacity:1;fill-rule:nonzero;stroke:none;stroke-width:.0357427"/><path d="M239.773 116.352v13.746l-9.8-5.693v-13.747l9.8 5.694" style="fill:#4a3f41;fill-opacity:1;fill-rule:nonzero;stroke:none;stroke-width:.0357427"/><path d="M229.972 110.658v13.747l2.477-1.43v-10.88l-2.477-1.437" style="fill:#585052;fill-opacity:1;fill-rule:nonzero;stroke:none;stroke-width:.0357427"/><path d="m229.972 124.405 2.477-1.43 7.324 4.135v2.988l-9.8-5.693" style="fill:#6f6366;fill-opacity:1;fill-rule:nonzero;stroke:none;stroke-width:.0357427"/><path d="M243.462 112.241v52.088l-2.635-1.537v-52.084l2.635 1.533" style="fill:#656769;fill-opacity:1;fill-rule:nonzero;stroke:none;stroke-width:.0357427"/><path d="m240.827 110.708 2.635 1.533 2.477-1.43-2.667-1.511-2.445 1.408" style="fill:#acacaa;fill-opacity:1;fill-rule:nonzero;stroke:none;stroke-width:.0357427"/><path d="M243.462 112.241v52.088l2.477-1.43v-52.087l-2.477 1.43" style="fill:#979898;fill-opacity:1;fill-rule:nonzero;stroke:none;stroke-width:.0357427"/><path d="M231.209 106.816v1.737l-1.237-.719v-1.737l1.237.719" style="fill:#d25773;fill-opacity:1;fill-rule:nonzero;stroke:none;stroke-width:.0357427"/><path d="M233.797 108.317v1.737l-1.24-.719v-1.737l1.24.719" style="fill:#c8c7c5;fill-opacity:1;fill-rule:nonzero;stroke:none;stroke-width:.0357427"/><path d="M236.381 109.818v1.737l-1.24-.718V109.1l1.24.718" style="fill:#ca8725;fill-opacity:1;fill-rule:nonzero;stroke:none;stroke-width:.0357427"/><path d="M231.209 102.855v1.737l-1.237-.718v-1.737l1.237.718" style="fill:#80ac29;fill-opacity:1;fill-rule:nonzero;stroke:none;stroke-width:.0357427"/><path d="M236.381 105.861v1.737l-1.24-.718v-1.74l1.24.721" style="fill:#c8c7c5;fill-opacity:1;fill-rule:nonzero;stroke:none;stroke-width:.0357427"/><path d="M238.965 111.323v1.733l-1.236-.718V110.6l1.236.722" style="fill:#ca8725;fill-opacity:1;fill-rule:nonzero;stroke:none;stroke-width:.0357427"/><path d="M321.213 115.44v134.05l37.169-21.9V93.812l-37.17 21.628" style="fill:#d7dbd9;fill-opacity:1;fill-rule:nonzero;stroke:none;stroke-width:.0357427"/><path d="m358.382 93.812-37.17 21.628-31.331-18.375 37.065-21.388 31.436 18.135" style="fill:#e9eae9;fill-opacity:1;fill-rule:nonzero;stroke:none;stroke-width:.0357427"/><path d="M321.213 115.44v134.05l-31.332-18.354V97.065l31.332 18.375" style="fill:#c8c7c5;fill-opacity:1;fill-rule:nonzero;stroke:none;stroke-width:.0357427"/><path d="M467.372 292.27v36.687l-146.16-84.946v-36.354l146.16 84.617" style="fill:#4a3f41;fill-opacity:1;fill-rule:nonzero;stroke:none;stroke-width:.0357427"/><path d="M467.372 328.578v4.318l-144.912-84.15v-4.013l144.912 83.841" style="fill:#b0b0ae;fill-opacity:1;fill-rule:nonzero;stroke:none;stroke-width:.0357427"/><path d="m321.213 204.372 146.159 84.342-.004 3.556-146.156-84.646v-3.252" style="fill:#c8c7c5;fill-opacity:1;fill-rule:nonzero;stroke:none;stroke-width:.0357427"/><path d="m467.372 288.714 37.026-21.496v3.557l-37.03 21.495.004-3.556" style="fill:#d7dbd9;fill-opacity:1;fill-rule:nonzero;stroke:none;stroke-width:.0357427"/><path d="m321.213 204.372 37.169-21.453 146.016 84.3-37.026 21.495-146.16-84.339" style="fill:#e9eae9;fill-opacity:1;fill-rule:nonzero;stroke:none;stroke-width:.0357427"/><path d="m508.887 269.77-37.072 21.482v45.618l37.072-21.785V269.77" style="fill:#d7dbd9;fill-opacity:1;fill-rule:nonzero;stroke:none;stroke-width:.0357427"/><path d="m471.815 291.248-4.443-2.534v45.622l4.443 2.534v-45.618" style="fill:#c8c7c5;fill-opacity:1;fill-rule:nonzero;stroke:none;stroke-width:.0357427"/><path d="m508.887 269.77-4.49-2.552-37.025 21.496 4.443 2.538 37.072-21.482" style="fill:#e9eae9;fill-opacity:1;fill-rule:nonzero;stroke:none;stroke-width:.0357427"/><path d="m287.254 356.918 38.405 22.186-.004 37.194-38.402-22.393v-36.987" style="fill:#4a3f41;fill-opacity:1;fill-rule:nonzero;stroke:none;stroke-width:.0357427"/><path d="m325.66 379.104 69.833-40.407v37.068l-69.837 40.533.004-37.194" style="fill:#585052;fill-opacity:1;fill-rule:nonzero;stroke:none;stroke-width:.0357427"/><path d="m289.61 395.28 36.05 21.018-.005 5.583-36.046-21.224v-5.376" style="fill:#b0b0ae;fill-opacity:1;fill-rule:nonzero;stroke:none;stroke-width:.0357427"/><path d="m325.66 416.298 67.871-39.385v5.447l-67.875 39.514.004-5.576" style="fill:#c8c7c5;fill-opacity:1;fill-rule:nonzero;stroke:none;stroke-width:.0357427"/><path d="m287.254 356.918 69.87-40.421 38.37 22.196-69.835 40.41-38.405-22.185" style="fill:#afafad;fill-opacity:1;fill-rule:nonzero;stroke:none;stroke-width:.0357427"/><path d="m471.815 291.252-146.16 84.338.005 3.56 146.155-84.65v-3.248" style="fill:#d7dbd9;fill-opacity:1;fill-rule:nonzero;stroke:none;stroke-width:.0357427"/><path d="m325.656 375.59-42.867-24.823v3.556l42.87 24.827-.004-3.56" style="fill:#c8c7c5;fill-opacity:1;fill-rule:nonzero;stroke:none;stroke-width:.0357427"/><path d="m471.815 291.252-43.01-24.784-146.016 84.299 42.867 24.823 146.159-84.338" style="fill:#e9eae9;fill-opacity:1;fill-rule:nonzero;stroke:none;stroke-width:.0357427"/><path d="m405.848 213.954-30.103 17.536-40.768-23.59 30.017-17.336 40.854 23.39" style="fill:#403f42;fill-opacity:1;fill-rule:nonzero;stroke:none;stroke-width:.0357427"/><path d="M356.43 210.638c-2.68 1.558-7.055 1.558-9.75 0-1.259-.726-1.948-1.673-1.952-2.667 0-.986.68-1.923 1.92-2.645 1.336-.779 3.102-1.165 4.868-1.165 1.765 0 3.53.386 4.882 1.165 1.255.726 1.948 1.673 1.948 2.667.004.986-.68 1.926-1.916 2.645zm1.927-4.368a5.133 5.133 0 0 0-1.666-1.451c-1.39-.805-3.228-1.244-5.176-1.244-1.947 0-3.781.44-5.164 1.244a5.093 5.093 0 0 0-1.644 1.444 2.974 2.974 0 0 0-.569 1.708 2.967 2.967 0 0 0 .583 1.723c.382.55.943 1.036 1.662 1.451 1.39.804 3.231 1.248 5.179 1.248 1.948 0 3.782-.444 5.161-1.248a5.065 5.065 0 0 0 1.644-1.44 2.949 2.949 0 0 0 .569-1.716 2.967 2.967 0 0 0-.58-1.72m13.611 13.415c-2.68 1.558-7.055 1.558-9.754 0-1.254-.726-1.948-1.673-1.948-2.666-.004-.983.68-1.923 1.916-2.645 1.34-.776 3.103-1.166 4.868-1.166 1.766 0 3.535.39 4.886 1.166 1.255.725 1.948 1.672 1.948 2.666.004.987-.679 1.927-1.916 2.645zm1.927-4.368a5.158 5.158 0 0 0-1.666-1.45c-1.39-.805-3.227-1.245-5.179-1.245-1.948 0-3.781.44-5.161 1.244a5.075 5.075 0 0 0-1.644 1.444 2.952 2.952 0 0 0-.568 1.712c0 .597.196 1.176.579 1.723.386.547.947 1.037 1.665 1.451 1.39.8 3.228 1.244 5.18 1.244 1.947 0 3.78-.443 5.16-1.247a5.058 5.058 0 0 0 1.645-1.44 2.977 2.977 0 0 0 .568-1.717 3.002 3.002 0 0 0-.579-1.719m-3.55-12.681c-2.676 1.558-7.051 1.558-9.75 0-1.254-.726-1.948-1.673-1.951-2.667 0-.986.682-1.923 1.919-2.645 1.34-.779 3.102-1.165 4.868-1.165 1.766 0 3.535.386 4.883 1.165 1.258.726 1.948 1.673 1.951 2.667 0 .986-.679 1.926-1.92 2.645zm1.93-4.368a5.158 5.158 0 0 0-1.665-1.451c-1.39-.804-3.23-1.244-5.179-1.244-1.948 0-3.781.44-5.165 1.244a5.1 5.1 0 0 0-1.64 1.44 2.949 2.949 0 0 0-.569 1.716c0 .597.197 1.176.58 1.72.385.546.943 1.036 1.665 1.45 1.39.805 3.228 1.248 5.176 1.248s3.781-.443 5.164-1.248a5.075 5.075 0 0 0 1.645-1.44 2.949 2.949 0 0 0 .564-1.716 2.967 2.967 0 0 0-.575-1.719m13.607 13.414c-2.68 1.559-7.055 1.559-9.75 0-1.259-.725-1.948-1.673-1.952-2.666 0-.983.68-1.923 1.92-2.645 1.34-.78 3.102-1.165 4.868-1.165 1.765 0 3.534.39 4.882 1.165 1.258.725 1.948 1.673 1.952 2.666 0 .987-.68 1.927-1.92 2.645zm1.927-4.368a5.086 5.086 0 0 0-1.666-1.45c-1.39-.805-3.228-1.245-5.175-1.245-1.948 0-3.782.444-5.165 1.244a5.104 5.104 0 0 0-1.644 1.444 2.945 2.945 0 0 0-.565 1.712 2.93 2.93 0 0 0 .579 1.72 5.111 5.111 0 0 0 1.662 1.454c1.39.801 3.231 1.244 5.179 1.244 1.948 0 3.782-.443 5.165-1.244a5.061 5.061 0 0 0 1.64-1.444 2.949 2.949 0 0 0 .569-1.715 2.967 2.967 0 0 0-.58-1.72" style="fill:#e9eae9;fill-opacity:1;fill-rule:nonzero;stroke:none;stroke-width:.0357427"/><path d="M388.17 174.473v11.51l29.437-17.433v-11.233l-29.437 17.156" style="fill:#979898;fill-opacity:1;fill-rule:nonzero;stroke:none;stroke-width:.0357427"/><path d="m417.607 157.317-29.437 17.156-59.13-34.156 29.335-16.92 59.232 33.92" style="fill:#afafad;fill-opacity:1;fill-rule:nonzero;stroke:none;stroke-width:.0357427"/><path d="M388.17 174.473v11.51l-59.13-34.139v-11.527l59.13 34.156" style="fill:#808383;fill-opacity:1;fill-rule:nonzero;stroke:none;stroke-width:.0357427"/><path d="M384.663 146.619v29.856l32.944-19.158v-29.585l-32.944 18.887" style="fill:#4a3f41;fill-opacity:1;fill-rule:nonzero;stroke:none;stroke-width:.0357427"/><path d="m417.607 127.732-32.944 18.887-59.129-33.702 32.84-19.105 59.233 33.92" style="fill:#6f6366;fill-opacity:1;fill-rule:nonzero;stroke:none;stroke-width:.0357427"/><path d="M384.663 146.619v29.856l-59.129-34.138v-29.42l59.13 33.702" style="fill:#585052;fill-opacity:1;fill-rule:nonzero;stroke:none;stroke-width:.0357427"/><path d="m288.787 350.57 32.826 19.13 49.01-28.576-32.73-18.898-49.106 28.344" style="fill:#afafad;fill-opacity:1;fill-rule:nonzero;stroke:none;stroke-width:.0357427"/><path d="m309.872 341.738 27.886-16.102 26.746 15.441-27.797 16.152-26.835-15.49" style="fill:#7ba8a0;fill-opacity:1;fill-rule:nonzero;stroke:none;stroke-width:.0357427"/><path d="M337.758 325.636v10.494l-18.725 10.895-9.161-5.287 27.886-16.102" style="fill:#979898;fill-opacity:1;fill-rule:nonzero;stroke:none;stroke-width:.0357427"/><path d="M337.758 325.636v10.494l17.625 10.248 9.121-5.3-26.746-15.442" style="fill:#808383;fill-opacity:1;fill-rule:nonzero;stroke:none;stroke-width:.0357427"/><path d="m295.328 350.127 12.188-7.03 26.746 15.44-12.098 7.085-26.836-15.495" style="fill:#7ba8a0;fill-opacity:1;fill-rule:nonzero;stroke:none;stroke-width:.0357427"/><path d="M307.516 343.097v10.49l-3.027 1.83-9.161-5.29 12.188-7.03" style="fill:#979898;fill-opacity:1;fill-rule:nonzero;stroke:none;stroke-width:.0357427"/><path d="M307.516 343.097v10.49l17.625 10.251 9.121-5.3-26.746-15.441m42.93-3.832v2.005l1.949-1.165V338.1l-1.948 1.165" style="fill:#808383;fill-opacity:1;fill-rule:nonzero;stroke:none;stroke-width:.0357427"/><path d="m352.395 338.1-1.948 1.165-13.418-7.742 1.97-1.147 13.396 7.72" style="fill:#afafad;fill-opacity:1;fill-rule:nonzero;stroke:none;stroke-width:.0357427"/><path d="M350.447 339.265v2.002l-13.418-7.742v-2.006l13.418 7.742" style="fill:#808383;fill-opacity:1;fill-rule:nonzero;stroke:none;stroke-width:.0357427"/><path d="M352.238 340.294v10.09l1.965-1.15v-10.087l-1.965 1.147" style="fill:#979898;fill-opacity:1;fill-rule:nonzero;stroke:none;stroke-width:.0357427"/><path d="m354.203 339.147-1.965 1.147-1.852-1.072 1.99-1.13 1.827 1.055" style="fill:#afafad;fill-opacity:1;fill-rule:nonzero;stroke:none;stroke-width:.0357427"/><path d="M352.238 340.294v10.087l-1.852-1.069v-10.09l1.851 1.072" style="fill:#808383;fill-opacity:1;fill-rule:nonzero;stroke:none;stroke-width:.0357427"/><path d="M414.809 251.298v1.359l20.52-11.813v-1.355l-20.52 11.81" style="fill:#9a7238;fill-opacity:1;fill-rule:nonzero;stroke:none;stroke-width:.0357427"/><path d="m435.329 239.49-20.52 11.808-28.98-16.78 20.52-11.81 28.98 16.781" style="fill:#c78e48;fill-opacity:1;fill-rule:nonzero;stroke:none;stroke-width:.0357427"/><path d="M414.809 251.284v1.358l-28.98-16.78v-1.359l28.98 16.781" style="fill:#b37a42;fill-opacity:1;fill-rule:nonzero;stroke:none;stroke-width:.0357427"/><path d="M415.602 214.18v9.257l-5.025-2.924v-9.257l5.025 2.924" style="fill:#ef9c2c;fill-opacity:1;fill-rule:nonzero;stroke:none;stroke-width:.0357427"/><path d="m410.577 211.256 5.025 2.924 4.718-2.728-5.082-2.88-4.661 2.68" style="fill:#ca8725;fill-opacity:1;fill-rule:nonzero;stroke:none;stroke-width:.0357427"/><path d="M415.602 214.18v9.257l4.718-2.727v-9.258l-4.718 2.728" style="fill:#ca8725;fill-opacity:1;fill-rule:nonzero;stroke:none;stroke-width:.0357427"/><path d="m415.595 213.704-4.2-2.448 3.843-2.216 4.282 2.42zm-.357-5.132-4.661 2.68 5.025 2.931 4.718-2.73-5.082-2.881" style="fill:#f1bb28;fill-opacity:1;fill-rule:nonzero;stroke:none;stroke-width:.0357427"/><path d="M421.814 219.623v7.17l-3.889-2.266v-7.17l3.89 2.266" style="fill:#b78dc2;fill-opacity:1;fill-rule:nonzero;stroke:none;stroke-width:.0357427"/><path d="m417.925 217.357 3.89 2.266 3.656-2.112-3.94-2.23-3.606 2.076" style="fill:#916d9f;fill-opacity:1;fill-rule:nonzero;stroke:none;stroke-width:.0357427"/><path d="M421.814 219.623v7.167l3.657-2.11v-7.17l-3.657 2.11" style="fill:#916d9f;fill-opacity:1;fill-rule:nonzero;stroke:none;stroke-width:.0357427"/><path d="m421.81 219.255-3.252-1.894 2.974-1.716 3.317 1.873zm-.278-3.974-3.607 2.076 3.89 2.266 3.656-2.112-3.94-2.23" style="fill:#b7bad7;fill-opacity:1;fill-rule:nonzero;stroke:none;stroke-width:.0357427"/><path d="M429.678 222.947v8.64l-4.686-2.731v-8.64l4.686 2.731" style="fill:#e4717f;fill-opacity:1;fill-rule:nonzero;stroke:none;stroke-width:.0357427"/><path d="m424.992 220.217 4.686 2.73 4.403-2.548-4.743-2.688-4.346 2.502" style="fill:#d25773;fill-opacity:1;fill-rule:nonzero;stroke:none;stroke-width:.0357427"/><path d="M429.678 222.944v8.642l4.403-2.548v-8.64l-4.403 2.546" style="fill:#d25773;fill-opacity:1;fill-rule:nonzero;stroke:none;stroke-width:.0357427"/><path d="m429.674 222.504-3.924-2.287 3.588-2.066 3.996 2.259zm-.336-4.79-4.346 2.503 4.686 2.73 4.403-2.548-4.743-2.688" style="fill:#ed8b98;fill-opacity:1;fill-rule:nonzero;stroke:none;stroke-width:.0357427"/><path d="M438.356 227.683v9.258l-5.022-2.924v-9.257l5.022 2.923" style="fill:#ef9c2c;fill-opacity:1;fill-rule:nonzero;stroke:none;stroke-width:.0357427"/><path d="m433.334 224.76 5.022 2.923 4.722-2.727-5.087-2.88-4.657 2.68" style="fill:#ca8725;fill-opacity:1;fill-rule:nonzero;stroke:none;stroke-width:.0357427"/><path d="M438.356 227.683v9.258l4.722-2.728v-9.257l-4.722 2.727" style="fill:#ca8725;fill-opacity:1;fill-rule:nonzero;stroke:none;stroke-width:.0357427"/><path d="m438.352 227.211-4.203-2.451 3.842-2.213 4.282 2.42zm-.36-5.136-4.658 2.68 5.022 2.932 4.722-2.73-5.087-2.882" style="fill:#f1bb28;fill-opacity:1;fill-rule:nonzero;stroke:none;stroke-width:.0357427"/><path d="M444.572 233.127v7.17l-3.893-2.266v-7.17l3.893 2.266" style="fill:#b78dc2;fill-opacity:1;fill-rule:nonzero;stroke:none;stroke-width:.0357427"/><path d="m440.68 230.86 3.892 2.267 3.653-2.109-3.94-2.234-3.606 2.077" style="fill:#916d9f;fill-opacity:1;fill-rule:nonzero;stroke:none;stroke-width:.0357427"/><path d="M444.572 233.127v7.17l3.653-2.113v-7.17l-3.653 2.113" style="fill:#916d9f;fill-opacity:1;fill-rule:nonzero;stroke:none;stroke-width:.0357427"/><path d="m444.565 232.759-3.253-1.895 2.974-1.715 3.317 1.873zm-.28-3.975-3.606 2.077 3.893 2.266 3.653-2.109-3.94-2.234" style="fill:#b7bad7;fill-opacity:1;fill-rule:nonzero;stroke:none;stroke-width:.0357427"/><path d="M452.432 236.451v8.639l-4.686-2.73v-8.64l4.686 2.73" style="fill:#e4717f;fill-opacity:1;fill-rule:nonzero;stroke:none;stroke-width:.0357427"/><path d="m447.746 233.72 4.686 2.731 4.403-2.545-4.743-2.691-4.346 2.505" style="fill:#d25773;fill-opacity:1;fill-rule:nonzero;stroke:none;stroke-width:.0357427"/><path d="M452.432 236.447v8.643l4.403-2.548v-8.64l-4.403 2.545" style="fill:#d25773;fill-opacity:1;fill-rule:nonzero;stroke:none;stroke-width:.0357427"/><path d="m452.428 236.004-3.921-2.284 3.585-2.062 3.996 2.252zm-.336-4.79-4.346 2.506 4.686 2.73 4.403-2.544-4.743-2.691" style="fill:#ed8b98;fill-opacity:1;fill-rule:nonzero;stroke:none;stroke-width:.0357427"/><path d="M480.29 257.732v20.238l18.343-10.809v-20.105l-18.344 10.676" style="fill:#d7dbd9;fill-opacity:1;fill-rule:nonzero;stroke:none;stroke-width:.0357427"/><path d="m498.633 247.056-18.344 10.676-29.184-16.86 18.294-10.555 29.234 16.739" style="fill:#e9eae9;fill-opacity:1;fill-rule:nonzero;stroke:none;stroke-width:.0357427"/><path d="M480.29 257.732v20.238l-29.185-16.85v-20.248l29.184 16.86" style="fill:#c8c7c5;fill-opacity:1;fill-rule:nonzero;stroke:none;stroke-width:.0357427"/><path d="M473.005 255.255v16.785l-20.598-11.867v-16.792l20.598 11.874" style="fill:#403f42;fill-opacity:1;fill-rule:nonzero;stroke:none;stroke-width:.0357427"/><path d="m453.407 245.111 18.597 10.723v14.476l-18.597-10.716zm-1-1.73v16.792l20.598 11.867v-16.785l-20.598-11.874" style="fill:#2d2c2e;fill-opacity:1;fill-rule:nonzero;stroke:none;stroke-width:.0357427"/><path d="m456.646 249.947 12.12 6.981v8.542l-12.12-6.97zm-.6-1.036v9.936l13.317 7.664v-9.93l-13.318-7.67" style="fill:#2d2c2e;fill-opacity:1;fill-rule:nonzero;stroke:none;stroke-width:.0357427"/><path d="M479.05 258.747v16.789l-4.912-2.824v-16.8l4.911 2.832" style="fill:#afafad;fill-opacity:1;fill-rule:nonzero;stroke:none;stroke-width:.0357427"/><path d="M387.265 324.485v8.693l-5.415-3.153-1.254-9.421 6.67 3.881" style="fill:#d7dbd9;fill-opacity:1;fill-rule:nonzero;stroke:none;stroke-width:.0357427"/><g clip-path="url(#a)" transform="matrix(.03574 0 0 -.03574 -69.216 517.979)"><path d="m12584.7 5522.1 186.6-108.6 175.3 101.3-188.9 107-173-99.7" style="fill:url(#b);fill-opacity:1;fill-rule:nonzero;stroke:none"/></g><path d="M387.265 324.485v8.69l5.197-3.003 1.07-9.311-6.267 3.624" style="fill:#c8c7c5;fill-opacity:1;fill-rule:nonzero;stroke:none;stroke-width:.0357427"/><path d="m387.258 323.856-5.58-3.252 5.101-2.938 5.683 3.21zm-.479-6.816-6.183 3.564 6.67 3.881 6.265-3.62-6.752-3.825" style="fill:#f5f4fb;fill-opacity:1;fill-rule:nonzero;stroke:none;stroke-width:.0357427"/><path d="M387.258 317.462v4.16l-1.715-.986v-4.157l1.715.986" style="fill:#7a4b32;fill-opacity:1;fill-rule:nonzero;stroke:none;stroke-width:.0357427"/><path d="M387.258 317.462v4.16l1.727-.993v-4.16l-1.727.996" style="fill:#6f3c2a;fill-opacity:1;fill-rule:nonzero;stroke:none;stroke-width:.0357427"/><path d="M387.251 312.969v7.274l-4.668-2.688v-7.274l4.668 2.688" style="fill:#78c165;fill-opacity:1;fill-rule:nonzero;stroke:none;stroke-width:.0357427"/><path d="m382.583 310.278 4.668 2.691 4.697-2.71-4.672-2.687-4.693 2.71" style="fill:#81c96e;fill-opacity:1;fill-rule:nonzero;stroke:none;stroke-width:.0357427"/><path d="M387.251 312.965v7.274l4.697-2.71v-7.273l-4.697 2.71" style="fill:#4ca062;fill-opacity:1;fill-rule:nonzero;stroke:none;stroke-width:.0357427"/><path d="M447.76 284.364v13.414l-7.274-4.239v-13.41l7.274 4.239" style="fill:#4a3f41;fill-opacity:1;fill-rule:nonzero;stroke:none;stroke-width:.0357427"/><g clip-path="url(#c)" transform="matrix(.03574 0 0 -.03574 -69.216 517.979)"><path d="m14260.3 6654.5 203.5-118.6 191.3 110.6-206.1 116.8-188.7-108.8" style="fill:url(#d);fill-opacity:1;fill-rule:nonzero;stroke:none"/></g><path d="M447.76 284.364v13.41l6.838-3.949v-13.414l-6.838 3.953" style="fill:#585052;fill-opacity:1;fill-rule:nonzero;stroke:none;stroke-width:.0357427"/><path d="m447.756 283.678-6.09-3.546 5.565-3.206 6.205 3.503zm-.525-7.435-6.745 3.886 7.274 4.239 6.838-3.953-7.367-4.175" style="fill:#6f6366;fill-opacity:1;fill-rule:nonzero;stroke:none;stroke-width:.0357427"/><path d="M429.088 295.137v13.41l-7.277-4.238v-13.411l7.277 4.239" style="fill:#4a3f41;fill-opacity:1;fill-rule:nonzero;stroke:none;stroke-width:.0357427"/><g clip-path="url(#e)" transform="matrix(.03574 0 0 -.03574 -69.216 517.979)"><path d="m13737.8 6353.2 203.6-118.6 191.3 110.6-206.1 116.8-188.8-108.8" style="fill:url(#f);fill-opacity:1;fill-rule:nonzero;stroke:none"/></g><path d="M429.088 295.133v13.411l6.838-3.953v-13.41l-6.838 3.952" style="fill:#585052;fill-opacity:1;fill-rule:nonzero;stroke:none;stroke-width:.0357427"/><path d="m429.08 294.444-6.09-3.543 5.569-3.21 6.205 3.504zm-.521-7.435-6.748 3.889 7.277 4.239 6.838-3.953-7.367-4.175" style="fill:#6f6366;fill-opacity:1;fill-rule:nonzero;stroke:none;stroke-width:.0357427"/><path d="M463.372 367.902v1.93l-13.768-7.97v-1.93l13.768 7.97" style="fill:#c8c7c5;fill-opacity:1;fill-rule:nonzero;stroke:none;stroke-width:.0357427"/><path d="m449.604 359.931 13.768 7.971 13.726-7.988-13.786-7.957-13.708 7.974" style="fill:#e9eae9;fill-opacity:1;fill-rule:nonzero;stroke:none;stroke-width:.0357427"/><path d="M463.372 367.902v1.927l13.726-7.989v-1.926l-13.726 7.988m.04-29.305v23.021l-3.11-1.812v-23.018l3.11 1.809" style="fill:#d7dbd9;fill-opacity:1;fill-rule:nonzero;stroke:none;stroke-width:.0357427"/><path d="m460.302 336.788 3.11 1.809 2.92-1.688-3.145-1.783-2.885 1.662" style="fill:#de3122;fill-opacity:1;fill-rule:nonzero;stroke:none;stroke-width:.0357427"/><path d="M463.412 338.597v23.021l2.92-1.69v-23.019l-2.92 1.688" style="fill:#c8c7c5;fill-opacity:1;fill-rule:nonzero;stroke:none;stroke-width:.0357427"/><path d="M463.383 331.795v7.42l-19.426-11.241v-7.428l19.426 11.245" style="fill:#ca8725;fill-opacity:1;fill-rule:nonzero;stroke:none;stroke-width:.0357427"/><path d="m443.957 320.55 19.426 11.241 19.362-11.273-19.451-11.223-19.337 11.255" style="fill:#f1bb28;fill-opacity:1;fill-rule:nonzero;stroke:none;stroke-width:.0357427"/><path d="M463.383 331.791v7.424l19.362-11.273v-7.424l-19.362 11.273" style="fill:#ef9c2c;fill-opacity:1;fill-rule:nonzero;stroke:none;stroke-width:.0357427"/><path d="M427.03 388.962v1.93l-13.772-7.97v-1.927l13.771 7.967" style="fill:#c8c7c5;fill-opacity:1;fill-rule:nonzero;stroke:none;stroke-width:.0357427"/><path d="m413.257 380.995 13.772 7.967 13.722-7.989-13.786-7.956-13.707 7.978" style="fill:#e9eae9;fill-opacity:1;fill-rule:nonzero;stroke:none;stroke-width:.0357427"/><path d="M427.03 388.962v1.926l13.72-7.988v-1.927l-13.72 7.989m.035-29.306v23.022l-3.11-1.812v-23.018l3.11 1.808" style="fill:#d7dbd9;fill-opacity:1;fill-rule:nonzero;stroke:none;stroke-width:.0357427"/><path d="m423.955 357.848 3.11 1.808 2.92-1.687-3.145-1.783-2.885 1.662" style="fill:#de3122;fill-opacity:1;fill-rule:nonzero;stroke:none;stroke-width:.0357427"/><path d="M427.065 359.656v23.022l2.92-1.69v-23.019l-2.92 1.687" style="fill:#c8c7c5;fill-opacity:1;fill-rule:nonzero;stroke:none;stroke-width:.0357427"/><path d="M427.036 352.85v7.428l-19.422-11.245v-7.423l19.422 11.24" style="fill:#ca8725;fill-opacity:1;fill-rule:nonzero;stroke:none;stroke-width:.0357427"/><path d="m407.614 341.61 19.422 11.24 19.362-11.273-19.451-11.223-19.333 11.256" style="fill:#f1bb28;fill-opacity:1;fill-rule:nonzero;stroke:none;stroke-width:.0357427"/><path d="M427.036 352.85v7.428l19.362-11.277v-7.424l-19.362 11.274" style="fill:#ef9c2c;fill-opacity:1;fill-rule:nonzero;stroke:none;stroke-width:.0357427"/><path d="M426.2 133.287v62.22l21.12-12.302v-62.221L426.2 133.29" style="fill:#ca8725;fill-opacity:1;fill-rule:nonzero;stroke:none;stroke-width:.0357427"/><path d="m447.32 120.98-21.12 12.307-18.962-11.138 21.05-12.134 19.032 10.965" style="fill:#f1bb28;fill-opacity:1;fill-rule:nonzero;stroke:none;stroke-width:.0357427"/><path d="M426.2 133.287v62.22l-18.962-11.122v-62.236l18.962 11.138" style="fill:#ef9c2c;fill-opacity:1;fill-rule:nonzero;stroke:none;stroke-width:.0357427"/><path d="M451.277 147.759v62.224l21.12-12.302v-62.225l-21.12 12.303" style="fill:#ca8725;fill-opacity:1;fill-rule:nonzero;stroke:none;stroke-width:.0357427"/><path d="m472.397 135.456-21.12 12.303-18.961-11.138 21.048-12.13 19.033 10.965" style="fill:#f1bb28;fill-opacity:1;fill-rule:nonzero;stroke:none;stroke-width:.0357427"/><path d="M451.277 147.759v62.224l-18.961-11.123v-62.239l18.961 11.138" style="fill:#ef9c2c;fill-opacity:1;fill-rule:nonzero;stroke:none;stroke-width:.0357427"/><path d="M476.354 162.231v62.228l21.12-12.306v-62.224l-21.12 12.306" style="fill:#ca8725;fill-opacity:1;fill-rule:nonzero;stroke:none;stroke-width:.0357427"/><path d="m497.475 149.929-21.12 12.306-18.962-11.138 21.049-12.13 19.033 10.962" style="fill:#f1bb28;fill-opacity:1;fill-rule:nonzero;stroke:none;stroke-width:.0357427"/><path d="M476.354 162.231v62.228l-18.961-11.126v-62.236l18.961 11.138" style="fill:#ef9c2c;fill-opacity:1;fill-rule:nonzero;stroke:none;stroke-width:.0357427"/><path d="M501.476 176.683v62.224l21.123-12.298v-62.23l-21.123 12.307" style="fill:#ca8725;fill-opacity:1;fill-rule:nonzero;stroke:none;stroke-width:.0363077"/><path d="m522.6 164.378-21.124 12.305-18.96-11.143 21.044-12.134 19.04 10.965" style="fill:#f1bb28;fill-opacity:1;fill-rule:nonzero;stroke:none;stroke-width:.0363077"/><path d="M501.431 176.707v62.228l-18.961-11.123v-62.235l18.961 11.134" style="fill:#ef9c2c;fill-opacity:1;fill-rule:nonzero;stroke:none;stroke-width:.0357427"/><path d="M427.28 194.864v-62.206l.428-.247v62.207l-.429.25m25.285 14.354v-62.21l.429-.247v62.207l-.43.25m25.153 14.43v-62.21l.429-.251v62.21l-.43.25m25.132 14.444v-62.21l.429-.25v62.21l-.43.25" style="fill:#a97220;fill-opacity:1;fill-rule:nonzero;stroke:none;stroke-width:.0357427"/><path d="M408.279 121.549h-.004l.432-.25h.004l-.432.25" style="fill:#c0b8ac;fill-opacity:1;fill-rule:nonzero;stroke:none;stroke-width:.0357427"/><path d="m427.28 132.658.428-.25-.429.25" style="fill:#a97220;fill-opacity:1;fill-rule:nonzero;stroke:none;stroke-width:.0357427"/><path d="m427.28 132.658-19.001-11.11.432-.25 18.997 11.11-.429.25" style="fill:#cca023;fill-opacity:1;fill-rule:nonzero;stroke:none;stroke-width:.0357427"/><path d="m452.56 147.012.43-.25h.003l-.432.25m-18.998-11.109-.004-.004.433-.247h.004l-.433.25" style="fill:#a97220;fill-opacity:1;fill-rule:nonzero;stroke:none;stroke-width:.0357427"/><path d="m452.56 147.012-18.997-11.109.432-.25 18.998 11.109-.433.25" style="fill:#cca023;fill-opacity:1;fill-rule:nonzero;stroke:none;stroke-width:.0357427"/><path d="M458.715 150.336v-.004l.433-.247-.433.25m19.001 11.11h-.004l.432-.25-.428.246" style="fill:#a97220;fill-opacity:1;fill-rule:nonzero;stroke:none;stroke-width:.0357427"/><path d="m477.712 161.445-18.997-11.109.433-.25 18.997 11.105-.433.25" style="fill:#cca023;fill-opacity:1;fill-rule:nonzero;stroke:none;stroke-width:.0357427"/><path d="m477.716 161.441.429-.25-.429.25" style="fill:#8d5f1d;fill-opacity:1;fill-rule:nonzero;stroke:none;stroke-width:.0357427"/><path d="m483.853 164.776-.007-.004.432-.25.007.004-.432.25" style="fill:#a97220;fill-opacity:1;fill-rule:nonzero;stroke:none;stroke-width:.0357427"/><path d="m502.847 175.885-18.994-11.109.432-.25 18.99 11.109-.428.25" style="fill:#cca023;fill-opacity:1;fill-rule:nonzero;stroke:none;stroke-width:.0357427"/><path d="m345.014 257.779-.786-.454-.49-.286v-36.343l1.276.736v36.35" style="fill:#332c2c;fill-opacity:1;fill-rule:nonzero;stroke:none;stroke-width:.0357427"/><path d="m345.014 257.782-.786-.457.786.454v.004" style="fill:#77797a;fill-opacity:1;fill-rule:nonzero;stroke:none;stroke-width:.0357427"/><path d="m371.049 236.505-1.273-.737v-.01l1.273.736v.01" style="fill:#4b4647;fill-opacity:1;fill-rule:nonzero;stroke:none;stroke-width:.0357427"/><path d="m371.049 272.844-1.273-.74v-36.336l1.273.737v36.34m24.762 12.67v-34.656l1.273.736v33.184l-.533.307-.74.429" style="fill:#332c2c;fill-opacity:1;fill-rule:nonzero;stroke:none;stroke-width:.0357427"/><path d="m396.551 285.086.533-.307-.533.307" style="fill:#9e9e9e;fill-opacity:1;fill-rule:nonzero;stroke:none;stroke-width:.0357427"/><path d="M329.934 216.15v3.952l5.547 3.253v-3.946l-5.547-3.26m24.977 14.358v3.95l5.547 3.252v-3.942l-5.547-3.26m26.014 15.048v3.95l5.547 3.252v-3.943l-5.547-3.26m26.592 15.32v3.95l5.551 3.252v-3.942l-5.55-3.256" style="fill:#c8c7c5;fill-opacity:1;fill-rule:nonzero;stroke:none;stroke-width:.0357427"/><path d="m91.52 312.058 22.41 12.91v3.663l-22.41-13.035v-3.538" style="fill:#ca8725;fill-opacity:1;fill-rule:nonzero;stroke:none;stroke-width:.0357427"/><path d="m113.93 324.968 23-13.45v3.663l-23 13.45v-3.663" style="fill:#ef9c2c;fill-opacity:1;fill-rule:nonzero;stroke:none;stroke-width:.0357427"/><path d="m91.52 312.058 23.09-13.425 22.32 12.885-23 13.45-22.41-12.91" style="fill:#f1bb28;fill-opacity:1;fill-rule:nonzero;stroke:none;stroke-width:.0357427"/><path d="m111.27 307.118 2.66 1.53v16.327l-2.66-1.537v-16.324" style="fill:#ca8725;fill-opacity:1;fill-rule:nonzero;stroke:none;stroke-width:.0357427"/><path d="m113.93 308.648 23.004-13.572v16.449l-23.004 13.45v-16.324" style="fill:#ef9c2c;fill-opacity:1;fill-rule:nonzero;stroke:none;stroke-width:.0357427"/><path d="m111.27 307.118 23.176-13.475 2.488 1.43-23.004 13.575-2.66-1.53" style="fill:#f1bb28;fill-opacity:1;fill-rule:nonzero;stroke:none;stroke-width:.0357427"/><path d="m91.52 292.263 22.41 12.914v3.664l-22.41-13.036v-3.538" style="fill:#ca8725;fill-opacity:1;fill-rule:nonzero;stroke:none;stroke-width:.0357427"/><path d="m113.93 305.177 23-13.45v3.664l-23 13.45v-3.664" style="fill:#ef9c2c;fill-opacity:1;fill-rule:nonzero;stroke:none;stroke-width:.0357427"/><path d="m91.52 292.263 23.09-13.425 22.32 12.89-23 13.45-22.41-12.911" style="fill:#f1bb28;fill-opacity:1;fill-rule:nonzero;stroke:none;stroke-width:.0357427"/><path d="m91.52 271.486 2.662 1.537V293.8l-2.66-1.537v-20.777" style="fill:#ca8725;fill-opacity:1;fill-rule:nonzero;stroke:none;stroke-width:.0357427"/><path d="m94.182 273.02 23.004-13.572v20.902L94.182 293.8v-20.78" style="fill:#ef9c2c;fill-opacity:1;fill-rule:nonzero;stroke:none;stroke-width:.0357427"/><path d="m91.52 271.486 23.178-13.475 2.488 1.437-23.004 13.571-2.66-1.533" style="fill:#f1bb28;fill-opacity:1;fill-rule:nonzero;stroke:none;stroke-width:.0357427"/><path d="m88.874 259.22 2.663 1.532 2.645 12.267-2.66-1.537-2.644-12.263" style="fill:#ca8725;fill-opacity:1;fill-rule:nonzero;stroke:none;stroke-width:.0357427"/><path d="m91.537 260.752 23-13.571 2.646 12.388-23 13.45-2.646-12.267" style="fill:#ef9c2c;fill-opacity:1;fill-rule:nonzero;stroke:none;stroke-width:.0357427"/><path d="m88.874 259.22 23.176-13.476 2.491 1.433-23.004 13.575-2.663-1.537" style="fill:#f1bb28;fill-opacity:1;fill-rule:nonzero;stroke:none;stroke-width:.0357427"/><path d="m145.605 281.004 22.404 12.903v3.664l-22.411-13.028v-3.539" style="fill:#ca8725;fill-opacity:1;fill-rule:nonzero;stroke:none;stroke-width:.0357427"/><path d="m168.009 293.911 23.004-13.45v3.664l-23.004 13.45v-3.664" style="fill:#ef9c2c;fill-opacity:1;fill-rule:nonzero;stroke:none;stroke-width:.0357427"/><path d="m145.605 281.004 23.086-13.428 22.322 12.885-23 13.45-22.411-12.91" style="fill:#f1bb28;fill-opacity:1;fill-rule:nonzero;stroke:none;stroke-width:.0357427"/><path d="m165.353 276.061 2.66 1.533v16.324l-2.66-1.537v-16.32" style="fill:#ca8725;fill-opacity:1;fill-rule:nonzero;stroke:none;stroke-width:.0357427"/><path d="m168.012 277.594 23.004-13.575v16.45l-23.007 13.45v-16.325" style="fill:#ef9c2c;fill-opacity:1;fill-rule:nonzero;stroke:none;stroke-width:.0357427"/><path d="m165.353 276.061 23.176-13.475 2.487 1.433-23.004 13.575-2.659-1.537" style="fill:#f1bb28;fill-opacity:1;fill-rule:nonzero;stroke:none;stroke-width:.0357427"/><path d="m145.605 261.21 22.407 12.91v3.667l-22.41-13.035v-3.538" style="fill:#ca8725;fill-opacity:1;fill-rule:nonzero;stroke:none;stroke-width:.0357427"/><path d="m168.009 274.12 23.004-13.45v3.664l-23.004 13.453v-3.663" style="fill:#ef9c2c;fill-opacity:1;fill-rule:nonzero;stroke:none;stroke-width:.0357427"/><path d="m145.605 261.21 23.086-13.425 22.322 12.885-23 13.45-22.411-12.91" style="fill:#f1bb28;fill-opacity:1;fill-rule:nonzero;stroke:none;stroke-width:.0357427"/><path d="m145.605 240.433 2.66 1.533v20.774l-2.66-1.537v-20.767" style="fill:#ca8725;fill-opacity:1;fill-rule:nonzero;stroke:none;stroke-width:.0357427"/><path d="m148.264 241.966 23.004-13.575v20.902l-23.004 13.45v-20.777" style="fill:#ef9c2c;fill-opacity:1;fill-rule:nonzero;stroke:none;stroke-width:.0357427"/><path d="m145.605 240.433 23.176-13.475 2.487 1.433-23.004 13.575-2.659-1.537" style="fill:#f1bb28;fill-opacity:1;fill-rule:nonzero;stroke:none;stroke-width:.0357427"/><path d="m142.957 228.162 2.662 1.537 2.645 12.267-2.659-1.537-2.645-12.267" style="fill:#ca8725;fill-opacity:1;fill-rule:nonzero;stroke:none;stroke-width:.0357427"/><path d="m145.62 229.696 23-13.572 2.645 12.392-23 13.45-2.646-12.27" style="fill:#ef9c2c;fill-opacity:1;fill-rule:nonzero;stroke:none;stroke-width:.0357427"/><path d="m142.957 228.162 23.175-13.475 2.491 1.437-23.004 13.572-2.662-1.534" style="fill:#f1bb28;fill-opacity:1;fill-rule:nonzero;stroke:none;stroke-width:.0357427"/><path d="m260.34 262.043-110.124 63.515v5.193l110.123-63.786v-4.922" style="fill:#d7dbd9;fill-opacity:1;fill-rule:nonzero;stroke:none;stroke-width:.0357427"/><path d="m150.216 325.558-51.02-29.545v5.197l51.024 29.541-.004-5.193" style="fill:#c8c7c5;fill-opacity:1;fill-rule:nonzero;stroke:none;stroke-width:.0357427"/><path d="m260.34 262.043-51.141-29.51-110.002 63.48 51.019 29.545 110.123-63.515" style="fill:#e9eae9;fill-opacity:1;fill-rule:nonzero;stroke:none;stroke-width:.0357427"/><path d="m94.708 298.568 51.069 29.545v46.68l-51.07-29.852v-46.37" style="fill:#c8c7c5;fill-opacity:1;fill-rule:nonzero;stroke:none;stroke-width:.0357427"/><path d="m145.777 328.113 4.439-2.534v46.676l-4.443 2.535v-46.677" style="fill:#d7dbd9;fill-opacity:1;fill-rule:nonzero;stroke:none;stroke-width:.0357427"/><path d="m94.708 298.568 4.489-2.555 51.019 29.566-4.44 2.538-51.068-29.549" style="fill:#e9eae9;fill-opacity:1;fill-rule:nonzero;stroke:none;stroke-width:.0357427"/><path d="m164.913 354.792 22.411 12.91v3.663l-22.41-13.035v-3.538" style="fill:#ca8725;fill-opacity:1;fill-rule:nonzero;stroke:none;stroke-width:.0357427"/><path d="m187.324 367.702 23-13.45v3.663l-23.003 13.45.004-3.663" style="fill:#ef9c2c;fill-opacity:1;fill-rule:nonzero;stroke:none;stroke-width:.0357427"/><path d="m164.913 354.792 23.09-13.425 22.322 12.885-23 13.45-22.412-12.91" style="fill:#f1bb28;fill-opacity:1;fill-rule:nonzero;stroke:none;stroke-width:.0357427"/><path d="m164.913 338.507 2.663 1.534v16.327l-2.659-1.537v-16.324" style="fill:#ca8725;fill-opacity:1;fill-rule:nonzero;stroke:none;stroke-width:.0357427"/><path d="m167.58 340.04 23-13.575v16.453l-23.004 13.45V340.04" style="fill:#ef9c2c;fill-opacity:1;fill-rule:nonzero;stroke:none;stroke-width:.0357427"/><path d="m164.913 338.507 23.18-13.475 2.487 1.433-23.004 13.576-2.659-1.537" style="fill:#c9db49;fill-opacity:1;fill-rule:nonzero;stroke:none;stroke-width:.0357427"/><path d="m164.913 335 22.411 12.911v3.664l-22.41-13.036v-3.538" style="fill:#ca8725;fill-opacity:1;fill-rule:nonzero;stroke:none;stroke-width:.0357427"/><path d="m187.324 347.911 23-13.45v3.66l-23.003 13.45.004-3.663" style="fill:#ef9c2c;fill-opacity:1;fill-rule:nonzero;stroke:none;stroke-width:.0357427"/><path d="m164.913 335 23.09-13.424 22.322 12.885-23 13.45-22.412-12.91" style="fill:#f1bb28;fill-opacity:1;fill-rule:nonzero;stroke:none;stroke-width:.0357427"/><path d="m184.665 325.597 2.66 1.537v20.777l-2.664-1.537v-20.777" style="fill:#ca8725;fill-opacity:1;fill-rule:nonzero;stroke:none;stroke-width:.0357427"/><path d="m187.324 327.13 23-13.571v20.902l-23.003 13.45.004-20.78" style="fill:#ef9c2c;fill-opacity:1;fill-rule:nonzero;stroke:none;stroke-width:.0357427"/><path d="m184.665 325.597 23.172-13.475 2.488 1.437-23 13.571-2.664-1.533" style="fill:#c9db49;fill-opacity:1;fill-rule:nonzero;stroke:none;stroke-width:.0357427"/><path d="m187.785 314.027 2.66 1.533-3.124 11.57-2.66-1.537 3.124-11.566" style="fill:#ca8725;fill-opacity:1;fill-rule:nonzero;stroke:none;stroke-width:.0357427"/><path d="m190.448 315.557 23-13.572-3.123 11.695-23.004 13.45 3.123-11.573" style="fill:#ef9c2c;fill-opacity:1;fill-rule:nonzero;stroke:none;stroke-width:.0357427"/><path d="m187.785 314.027 23.176-13.475 2.487 1.433-23 13.575-2.663-1.537" style="fill:#f1bb28;fill-opacity:1;fill-rule:nonzero;stroke:none;stroke-width:.0357427"/><path d="m218.563 323.545 22.41 12.91-.006 3.664-22.404-13.035v-3.539" style="fill:#ca8725;fill-opacity:1;fill-rule:nonzero;stroke:none;stroke-width:.0357427"/><path d="m240.97 336.456 23-13.45v3.663l-23.003 13.454.004-3.664" style="fill:#ef9c2c;fill-opacity:1;fill-rule:nonzero;stroke:none;stroke-width:.0357427"/><path d="m218.563 323.545 23.086-13.425 22.322 12.886-23 13.45-22.411-12.91" style="fill:#f1bb28;fill-opacity:1;fill-rule:nonzero;stroke:none;stroke-width:.0357427"/><path d="m218.563 307.26 2.66 1.534v16.328l-2.66-1.537V307.26" style="fill:#ca8725;fill-opacity:1;fill-rule:nonzero;stroke:none;stroke-width:.0357427"/><path d="m221.223 308.794 23.004-13.575v16.453l-23.004 13.453v-16.327" style="fill:#ef9c2c;fill-opacity:1;fill-rule:nonzero;stroke:none;stroke-width:.0357427"/><path d="m218.563 307.26 23.176-13.474 2.488 1.433-23.004 13.575-2.66-1.537" style="fill:#c9db49;fill-opacity:1;fill-rule:nonzero;stroke:none;stroke-width:.0357427"/><path d="m218.563 303.755 22.41 12.91-.006 3.663-22.404-13.035v-3.538" style="fill:#ca8725;fill-opacity:1;fill-rule:nonzero;stroke:none;stroke-width:.0357427"/><path d="m240.97 316.665 23-13.45v3.663l-23.003 13.45.004-3.663" style="fill:#ef9c2c;fill-opacity:1;fill-rule:nonzero;stroke:none;stroke-width:.0357427"/><path d="m218.563 303.755 23.086-13.425 22.322 12.885-23 13.45-22.411-12.91" style="fill:#f1bb28;fill-opacity:1;fill-rule:nonzero;stroke:none;stroke-width:.0357427"/><path d="m238.308 294.35 2.662 1.538v20.777l-2.662-1.537V294.35" style="fill:#ca8725;fill-opacity:1;fill-rule:nonzero;stroke:none;stroke-width:.0357427"/><path d="m240.97 295.884 23-13.572v20.903l-23.003 13.45.004-20.781" style="fill:#ef9c2c;fill-opacity:1;fill-rule:nonzero;stroke:none;stroke-width:.0357427"/><path d="m238.308 294.35 23.175-13.474 2.488 1.436-23 13.572-2.663-1.533" style="fill:#c9db49;fill-opacity:1;fill-rule:nonzero;stroke:none;stroke-width:.0357427"/><path d="m241.431 282.78 2.66 1.534-3.124 11.57-2.66-1.537 3.124-11.566" style="fill:#ca8725;fill-opacity:1;fill-rule:nonzero;stroke:none;stroke-width:.0357427"/><path d="m244.09 284.314 23.005-13.575-3.124 11.695-23.004 13.45 3.124-11.57" style="fill:#ef9c2c;fill-opacity:1;fill-rule:nonzero;stroke:none;stroke-width:.0357427"/><path d="m241.431 282.78 23.176-13.474 2.488 1.433-23 13.575-2.664-1.537" style="fill:#f1bb28;fill-opacity:1;fill-rule:nonzero;stroke:none;stroke-width:.0357427"/><path d="M209.177 238.206v8.693l-5.415-3.157-1.25-9.418 6.665 3.882" style="fill:#d7dbd9;fill-opacity:1;fill-rule:nonzero;stroke:none;stroke-width:.0357427"/><g clip-path="url(#g)" transform="matrix(.03574 0 0 -.03574 -69.216 517.979)"><path d="m7602.2 7936 186.6-108.6 175.3 101.3-188.9 107-173-99.7" style="fill:url(#h);fill-opacity:1;fill-rule:nonzero;stroke:none"/></g><path d="M209.177 238.202v8.693l5.2-3.006 1.066-9.307-6.266 3.62" style="fill:#c8c7c5;fill-opacity:1;fill-rule:nonzero;stroke:none;stroke-width:.0357427"/><path d="m209.17 237.577-5.576-3.253 5.097-2.938 5.687 3.21zm-.479-6.816-6.183 3.563 6.67 3.882 6.265-3.62-6.752-3.825" style="fill:#f5f4fb;fill-opacity:1;fill-rule:nonzero;stroke:none;stroke-width:.0357427"/><path d="M209.174 231.182v4.16l-1.716-.986v-4.16l1.716.986" style="fill:#7a4b32;fill-opacity:1;fill-rule:nonzero;stroke:none;stroke-width:.0357427"/><path d="M209.174 231.182v4.16l1.722-.996v-4.157l-1.722.993" style="fill:#6f3c2a;fill-opacity:1;fill-rule:nonzero;stroke:none;stroke-width:.0357427"/><path d="M209.166 226.69v7.273l-4.671-2.688v-7.273l4.671 2.688" style="fill:#78c165;fill-opacity:1;fill-rule:nonzero;stroke:none;stroke-width:.0357427"/><path d="m204.495 224.002 4.671 2.688 4.694-2.71-4.672-2.688-4.693 2.71" style="fill:#81c96e;fill-opacity:1;fill-rule:nonzero;stroke:none;stroke-width:.0357427"/><path d="M209.166 226.686v7.274l4.694-2.71v-7.273l-4.694 2.709" style="fill:#4ca062;fill-opacity:1;fill-rule:nonzero;stroke:none;stroke-width:.0357427"/><path d="M509.854 307.826v31.501l17.648-10.158 2.574-32.98-20.222 11.637" style="fill:#c1bfbd;fill-opacity:1;fill-rule:nonzero;stroke:none;stroke-width:.0367664"/><path d="m530.076 296.19-20.222 11.636-20.328-11.729 20.222-11.64 20.328 11.732" style="fill:#c1bfbd;fill-opacity:1;fill-rule:nonzero;stroke:none;stroke-width:.0367664"/><path d="M509.788 307.836v31.5l-16.881-9.743-3.446-33.484 20.327 11.73" style="fill:#d3d3d1;fill-opacity:1;fill-rule:nonzero;stroke:none;stroke-width:.0357427"/><path d="m493.078 296.094 16.67-9.589 16.776 9.68-16.67 9.597zm16.67-11.637-20.222 11.637 20.328 11.732 20.222-11.637-20.328-11.728" style="fill:#676163;fill-opacity:1;fill-rule:nonzero;stroke:none;stroke-width:.0367664"/><path d="m509.744 286.508.106 19.272 16.67-9.59-16.776-9.686" style="fill:#d3d3d1;fill-opacity:1;fill-rule:nonzero;stroke:none;stroke-width:.0365482"/><path d="m489.461 296.12 20.327 11.73-.107 4.897-19.62-10.797-.6-5.83" style="fill:#585052;fill-opacity:1;fill-rule:nonzero;stroke:none;stroke-width:.0357427"/><path d="m509.748 312.723 19.92-11.324.408-5.21-20.222 11.637-.106 4.897" style="fill:#4a3f41;fill-opacity:1;fill-rule:nonzero;stroke:none;stroke-width:.0367664"/><path d="m493.014 296.123 4.092 2.36 12.628-7.4-.053-4.55-16.667 9.59" style="fill:#4a3f41;fill-opacity:1;fill-rule:nonzero;stroke:none;stroke-width:.0357427"/><path d="m509.8 291.058 12.94 7.306 3.78-2.175-16.776-9.685.055 4.554" style="fill:#585052;fill-opacity:1;fill-rule:nonzero;stroke:none;stroke-width:.0365482"/><path d="M199.995 268.23v5.018l10.3-6.001v-5.022l-10.297 5.998" style="fill:#d7dbd9;fill-opacity:1;fill-rule:nonzero;stroke:none;stroke-width:.0357427"/><g clip-path="url(#i)" transform="matrix(.03574 0 0 -.03574 -69.216 517.979)"><path d="m7820.1 7155.4-288.2-168L7261 7144l291.7 165.3 267.3-154" style="fill:url(#j);fill-opacity:1;fill-rule:nonzero;stroke:none"/></g><path d="M199.995 268.223v5.029l-9.683-5.598v-5.025l9.68 5.594" style="fill:#c8c7c5;fill-opacity:1;fill-rule:nonzero;stroke:none;stroke-width:.0357427"/><path d="m191.96 262.65 8.782-4.96 7.881 4.539-8.62 5.021zm-1.644-.018 9.679 5.594 10.3-6.001-9.553-5.504-10.43 5.911" style="fill:#f5f4fb;fill-opacity:1;fill-rule:nonzero;stroke:none;stroke-width:.0357427"/><path d="M157.786 292.8v5.025l10.305-6.001v-5.026l-10.305 6.001" style="fill:#d7dbd9;fill-opacity:1;fill-rule:nonzero;stroke:none;stroke-width:.0357427"/><g clip-path="url(#k)" transform="matrix(.03574 0 0 -.03574 -69.216 517.979)"><path d="M6639.3 6468 6351 6300l-270.8 156.6 291.8 165.3 267.3-154" style="fill:url(#l);fill-opacity:1;fill-rule:nonzero;stroke:none"/></g><path d="M157.786 292.796v5.025l-9.679-5.594v-5.025l9.68 5.597" style="fill:#c8c7c5;fill-opacity:1;fill-rule:nonzero;stroke:none;stroke-width:.0357427"/><path d="m149.751 287.224 8.786-4.962 7.881 4.54-8.621 5.022zm-1.644-.022 9.68 5.597 10.304-6.004-9.554-5.501-10.43 5.908" style="fill:#f5f4fb;fill-opacity:1;fill-rule:nonzero;stroke:none;stroke-width:.0357427"/><path d="M321.213 159.958 289.88 141.86v-1.38l31.332 18.097v1.38m0 46.376-31.332-18.096v-1.384l31.332 18.1v1.38" style="fill:#87888a;fill-opacity:1;fill-rule:nonzero;stroke:none;stroke-width:.0357427"/></svg>