<?xml version="1.0" encoding="UTF-8" standalone="no"?>
<svg
   height="55"
   width="255"
   viewBox="-35.20005 -41.33325 64.826759 17.049965"
   version="1.1"
   id="svg938"
   sodipodi:docname="logo.svg"
   inkscape:version="1.2.1 (9c6d41e, 2022-07-14)"
   xmlns:inkscape="http://www.inkscape.org/namespaces/inkscape"
   xmlns:sodipodi="http://sodipodi.sourceforge.net/DTD/sodipodi-0.dtd"
   xmlns="http://www.w3.org/2000/svg"
   xmlns:svg="http://www.w3.org/2000/svg">
  <defs
     id="defs942" />
  <sodipodi:namedview
     id="namedview940"
     pagecolor="#ffffff"
     bordercolor="#111111"
     borderopacity="1"
     inkscape:showpageshadow="0"
     inkscape:pageopacity="0"
     inkscape:pagecheckerboard="1"
     inkscape:deskcolor="#d1d1d1"
     showgrid="false"
     inkscape:zoom="1.2240119"
     inkscape:cx="124.59029"
     inkscape:cy="40.440783"
     inkscape:window-width="1680"
     inkscape:window-height="997"
     inkscape:window-x="121"
     inkscape:window-y="1105"
     inkscape:window-maximized="1"
     inkscape:current-layer="svg938" />
  <path
     d="m -20.077249,-38.29978 c -0.252313,-0.949982 -0.995603,-1.698133 -1.939603,-1.952035 -1.710659,-0.461436 -8.570781,-0.461436 -8.570781,-0.461436 0,0 -6.860028,0 -8.570782,0.461436 -0.943999,0.253902 -1.687476,1.002053 -1.939602,1.952035 -0.458351,1.721879 -0.458351,5.314554 -0.458351,5.314554 0,0 0,3.592489 0.458351,5.314555 0.252126,0.950075 0.995603,1.698039 1.939509,1.952222 1.710753,0.46125 8.570782,0.46125 8.570782,0.46125 0,0 6.860121,0 8.570781,-0.46125 0.943999,-0.254089 1.687289,-1.002147 1.939602,-1.952128 0.458445,-1.722066 0.458445,-5.314555 0.458445,-5.314555 0,0 0,-3.592676 -0.458445,-5.314554"
     fill="#ff0000"
     id="path934"
     style="fill:#448aff;fill-opacity:1;stroke-width:0.0934838" />
  <path
     d="m -32.831244,-29.723388 5.733642,-3.261651 -5.733642,-3.262023 z"
     fill="#ffffff"
     id="path936"
     style="stroke-width:0.0934838" />
  <text
     xml:space="preserve"
     style="font-size:131.039px;font-family:'Alternate Gothic No.2';-inkscape-font-specification:'Alternate Gothic No.2, Normal';fill:#212121;fill-opacity:1;stroke-width:1.35625"
     x="-17.644587"
     y="-26.799488"
     id="text1063"><tspan
       sodipodi:role="line"
       id="tspan1061"
       style="font-style:normal;font-variant:normal;font-weight:normal;font-stretch:normal;font-size:18.0833px;font-family:'Alternate Gothic No.2';-inkscape-font-specification:'Alternate Gothic No.2, Normal';font-variant-ligatures:normal;font-variant-caps:normal;font-variant-numeric:normal;font-variant-east-asian:normal;fill:#212121;fill-opacity:1;stroke-width:1.35625"
       x="-17.644587"
       y="-26.799488">MokuTube</tspan></text>
</svg>
